<svg id="Layer_3" data-name="Layer 3" xmlns="http://www.w3.org/2000/svg" viewBox="0 0 537.36 92.59"><defs><style>.cls-1{fill:none;stroke:#70b2e2;}.cls-1,.cls-3{stroke-miterlimit:10;stroke-width:7px;}.cls-2,.cls-3{fill:#70b2e2;}.cls-3{stroke:#fff;}</style></defs><title>releases</title><line class="cls-1" x1="268.78" y1="48.71" x2="185.06" y2="48.71"/><line class="cls-1" x1="352.5" y1="48.71" x2="268.78" y2="48.71"/><circle class="cls-2" cx="271.2" cy="48.71" r="23.65"/><circle class="cls-3" cx="271.2" cy="48.71" r="12.85"/><circle class="cls-2" cx="185.06" cy="48.71" r="12.85"/><line class="cls-1" x1="101.34" y1="48.71" x2="17.62" y2="48.71"/><line class="cls-1" x1="185.06" y1="48.71" x2="101.34" y2="48.71"/><circle class="cls-2" cx="103.76" cy="48.71" r="23.65"/><circle class="cls-3" cx="103.76" cy="48.71" r="12.85"/><circle class="cls-2" cx="519.94" cy="48.71" r="12.85"/><line class="cls-1" x1="436.22" y1="48.71" x2="352.5" y2="48.71"/><line class="cls-1" x1="519.94" y1="48.71" x2="436.22" y2="48.71"/><circle class="cls-2" cx="438.64" cy="48.71" r="23.65"/><circle class="cls-3" cx="438.64" cy="48.71" r="12.85"/><circle class="cls-2" cx="17.62" cy="48.71" r="12.85"/><circle class="cls-2" cx="352.5" cy="48.71" r="12.85"/><path class="cls-2" d="M291.14,35h-1.9a.83.83,0,0,1-.77-.4l-1.93-3.12a.8.8,0,0,0-.26-.26.83.83,0,0,0-.43-.09h-.71V35H283V24.83h3.19a6.43,6.43,0,0,1,1.82.22,3.35,3.35,0,0,1,1.24.61,2.37,2.37,0,0,1,.71.93,3.13,3.13,0,0,1,.22,1.2,3.31,3.31,0,0,1-.14.95A2.82,2.82,0,0,1,289,30.22a3.41,3.41,0,0,1-.91.47,1.65,1.65,0,0,1,.38.27,1.9,1.9,0,0,1,.31.37Zm-4.92-5.34a2.86,2.86,0,0,0,.88-.13,1.73,1.73,0,0,0,.61-.36,1.4,1.4,0,0,0,.35-.54,2,2,0,0,0,.11-.67,1.38,1.38,0,0,0-.48-1.12,2.29,2.29,0,0,0-1.46-.4h-1.09v3.22Z" transform="translate(-34.8 -24.55)"/><path class="cls-2" d="M292.93,31.67a2.28,2.28,0,0,0,.58,1.49,1.76,1.76,0,0,0,1.27.47,2.39,2.39,0,0,0,.69-.1,3,3,0,0,0,.51-.21l.4-.21a.76.76,0,0,1,.35-.09.39.39,0,0,1,.35.17l.56.7a3.17,3.17,0,0,1-.68.59,3.64,3.64,0,0,1-.77.37,4.43,4.43,0,0,1-.8.19,7.13,7.13,0,0,1-.79.05,3.88,3.88,0,0,1-1.41-.25,3.27,3.27,0,0,1-1.14-.73,3.47,3.47,0,0,1-.76-1.21,4.53,4.53,0,0,1-.28-1.67,4,4,0,0,1,.24-1.39,3.24,3.24,0,0,1,1.8-1.9,3.6,3.6,0,0,1,1.47-.28,3.55,3.55,0,0,1,1.28.22,2.81,2.81,0,0,1,1.66,1.67,3.8,3.8,0,0,1,.24,1.4,3.16,3.16,0,0,1,0,.35.9.9,0,0,1-.07.23.3.3,0,0,1-.14.11.62.62,0,0,1-.21,0Zm3-1.14a2.14,2.14,0,0,0-.08-.58,1.4,1.4,0,0,0-.26-.48,1.14,1.14,0,0,0-.44-.33,1.41,1.41,0,0,0-.64-.13,1.43,1.43,0,0,0-1.08.4,2,2,0,0,0-.51,1.12Z" transform="translate(-34.8 -24.55)"/><path class="cls-2" d="M300.84,24.55V35h-1.93V24.55Z" transform="translate(-34.8 -24.55)"/><path class="cls-2" d="M304,31.67a2.28,2.28,0,0,0,.58,1.49,1.76,1.76,0,0,0,1.27.47,2.34,2.34,0,0,0,.69-.1,3,3,0,0,0,.51-.21l.4-.21a.79.79,0,0,1,.35-.09.39.39,0,0,1,.35.17l.56.7a3.17,3.17,0,0,1-.68.59,3.64,3.64,0,0,1-.77.37,4.43,4.43,0,0,1-.8.19,7.13,7.13,0,0,1-.79.05,3.88,3.88,0,0,1-1.41-.25,3.27,3.27,0,0,1-1.14-.73,3.47,3.47,0,0,1-.76-1.21,4.53,4.53,0,0,1-.28-1.67,4,4,0,0,1,.24-1.39,3.24,3.24,0,0,1,1.8-1.9,3.6,3.6,0,0,1,1.47-.28,3.55,3.55,0,0,1,1.28.22,2.81,2.81,0,0,1,1.66,1.67,3.8,3.8,0,0,1,.24,1.4,3.16,3.16,0,0,1,0,.35.9.9,0,0,1-.07.23.3.3,0,0,1-.14.11.58.58,0,0,1-.21,0Zm3-1.14A2.14,2.14,0,0,0,307,30a1.4,1.4,0,0,0-.26-.48,1.14,1.14,0,0,0-.44-.33,1.41,1.41,0,0,0-.64-.13,1.43,1.43,0,0,0-1.08.4,2,2,0,0,0-.51,1.12Z" transform="translate(-34.8 -24.55)"/><path class="cls-2" d="M309.79,28.77a4.5,4.5,0,0,1,1.41-.86,4.76,4.76,0,0,1,1.67-.28,3,3,0,0,1,1.15.21,2.47,2.47,0,0,1,.86.58,2.59,2.59,0,0,1,.54.89,3.25,3.25,0,0,1,.19,1.14V35h-.88a1,1,0,0,1-.42-.07.59.59,0,0,1-.23-.32l-.16-.47a6,6,0,0,1-.52.42,3.64,3.64,0,0,1-.53.31,2.88,2.88,0,0,1-.59.18,3,3,0,0,1-.69.07,2.94,2.94,0,0,1-.87-.13,1.94,1.94,0,0,1-.68-.37,1.69,1.69,0,0,1-.43-.62,2.13,2.13,0,0,1-.16-.86,1.85,1.85,0,0,1,.2-.8,2.07,2.07,0,0,1,.7-.72,4.3,4.3,0,0,1,1.32-.54,9.32,9.32,0,0,1,2.06-.24v-.37a1.47,1.47,0,0,0-.29-1,1.07,1.07,0,0,0-.83-.32,1.83,1.83,0,0,0-.66.1,3.49,3.49,0,0,0-.47.2l-.37.2a.78.78,0,0,1-.41.1.62.62,0,0,1-.34-.1.88.88,0,0,1-.22-.25Zm3.94,3.2a8.31,8.31,0,0,0-1.18.12,2.59,2.59,0,0,0-.74.23,1,1,0,0,0-.4.32.7.7,0,0,0-.11.38.73.73,0,0,0,.23.6,1.08,1.08,0,0,0,.66.17,1.78,1.78,0,0,0,.83-.17,2.52,2.52,0,0,0,.71-.53Z" transform="translate(-34.8 -24.55)"/><path class="cls-2" d="M321.61,29.25a.44.44,0,0,1-.16.17.36.36,0,0,1-.22.06.72.72,0,0,1-.28-.07l-.33-.16-.42-.15a2.21,2.21,0,0,0-.54-.07,1.18,1.18,0,0,0-.73.2.6.6,0,0,0-.26.5.5.5,0,0,0,.15.37,1.09,1.09,0,0,0,.38.25,5.76,5.76,0,0,0,.55.21l.64.2A5.93,5.93,0,0,1,321,31a2.12,2.12,0,0,1,.55.37,1.64,1.64,0,0,1,.54,1.28,2.37,2.37,0,0,1-.2,1,1.94,1.94,0,0,1-.56.77,2.54,2.54,0,0,1-.92.5,3.87,3.87,0,0,1-1.28.19,4.51,4.51,0,0,1-.73-.07,3.78,3.78,0,0,1-.7-.19,5.67,5.67,0,0,1-.61-.28,3.37,3.37,0,0,1-.5-.35l.45-.72a.61.61,0,0,1,.19-.2.56.56,0,0,1,.3-.07.59.59,0,0,1,.32.09l.33.19a4.54,4.54,0,0,0,.43.19,2.17,2.17,0,0,0,.62.08,1.65,1.65,0,0,0,.48-.06.85.85,0,0,0,.33-.17.64.64,0,0,0,.19-.25.67.67,0,0,0,.06-.28.53.53,0,0,0-.15-.39,1.26,1.26,0,0,0-.39-.26,3.65,3.65,0,0,0-.56-.2c-.21-.06-.43-.13-.64-.21a5,5,0,0,1-.64-.26,2,2,0,0,1-.55-.39,1.85,1.85,0,0,1-.39-.58,2.09,2.09,0,0,1-.15-.83A2.05,2.05,0,0,1,317,29a1.92,1.92,0,0,1,.53-.71,2.44,2.44,0,0,1,.87-.49,4.07,4.07,0,0,1,2.6.07,3.09,3.09,0,0,1,1,.66Z" transform="translate(-34.8 -24.55)"/><path class="cls-2" d="M324.86,31.67a2.28,2.28,0,0,0,.58,1.49,1.75,1.75,0,0,0,1.27.47,2.39,2.39,0,0,0,.69-.1,3,3,0,0,0,.51-.21l.4-.21a.73.73,0,0,1,.35-.09.4.4,0,0,1,.35.17l.56.7a3.43,3.43,0,0,1-.68.59,3.89,3.89,0,0,1-.77.37,4.75,4.75,0,0,1-.81.19,7.11,7.11,0,0,1-.78.05,3.88,3.88,0,0,1-1.41-.25,3.1,3.1,0,0,1-1.14-.73,3.64,3.64,0,0,1-.77-1.21,4.75,4.75,0,0,1-.28-1.67,4,4,0,0,1,.24-1.39,3.36,3.36,0,0,1,.7-1.13,3.16,3.16,0,0,1,1.11-.77,3.6,3.6,0,0,1,1.47-.28,3.49,3.49,0,0,1,1.27.22,2.72,2.72,0,0,1,1,.64,2.94,2.94,0,0,1,.66,1,3.81,3.81,0,0,1,.23,1.4,1.78,1.78,0,0,1,0,.35.48.48,0,0,1-.07.23.24.24,0,0,1-.13.11.69.69,0,0,1-.22,0Zm3-1.14a2.14,2.14,0,0,0-.08-.58,1.4,1.4,0,0,0-.26-.48,1.22,1.22,0,0,0-.44-.33,1.41,1.41,0,0,0-.64-.13,1.43,1.43,0,0,0-1.08.4,1.92,1.92,0,0,0-.51,1.12Z" transform="translate(-34.8 -24.55)"/><path class="cls-2" d="M123.7,35h-1.9a.83.83,0,0,1-.77-.4l-1.93-3.12a.8.8,0,0,0-.26-.26.83.83,0,0,0-.43-.09h-.71V35h-2.1V24.83h3.19a6.43,6.43,0,0,1,1.82.22,3.43,3.43,0,0,1,1.24.61,2.37,2.37,0,0,1,.71.93,3.13,3.13,0,0,1,.22,1.2,3.31,3.31,0,0,1-.14.95,3,3,0,0,1-.42.83,3.19,3.19,0,0,1-.67.65,3.41,3.41,0,0,1-.91.47,1.86,1.86,0,0,1,.69.64Zm-4.92-5.34a2.86,2.86,0,0,0,.88-.13,1.73,1.73,0,0,0,.61-.36,1.4,1.4,0,0,0,.35-.54,2,2,0,0,0,.11-.67,1.38,1.38,0,0,0-.48-1.12,2.29,2.29,0,0,0-1.46-.4H117.7v3.22Z" transform="translate(-34.8 -24.55)"/><path class="cls-2" d="M125.49,31.67a2.28,2.28,0,0,0,.58,1.49,1.75,1.75,0,0,0,1.27.47,2.39,2.39,0,0,0,.69-.1,3,3,0,0,0,.51-.21l.4-.21a.76.76,0,0,1,.35-.09.39.39,0,0,1,.35.17l.56.7a3.43,3.43,0,0,1-.68.59,3.89,3.89,0,0,1-.77.37,4.43,4.43,0,0,1-.8.19,7.29,7.29,0,0,1-.79.05,3.88,3.88,0,0,1-1.41-.25,3.18,3.18,0,0,1-1.14-.73,3.64,3.64,0,0,1-.77-1.21,4.75,4.75,0,0,1-.28-1.67,3.77,3.77,0,0,1,.25-1.39,3.34,3.34,0,0,1,.69-1.13,3.25,3.25,0,0,1,1.11-.77,3.6,3.6,0,0,1,1.47-.28,3.55,3.55,0,0,1,1.28.22,2.68,2.68,0,0,1,1,.64,2.81,2.81,0,0,1,.66,1,3.8,3.8,0,0,1,.24,1.4,3.16,3.16,0,0,1,0,.35.9.9,0,0,1-.07.23.3.3,0,0,1-.14.11.62.62,0,0,1-.21,0Zm3-1.14a2.14,2.14,0,0,0-.08-.58,1.4,1.4,0,0,0-.26-.48,1.22,1.22,0,0,0-.44-.33,1.41,1.41,0,0,0-.64-.13,1.43,1.43,0,0,0-1.08.4,2,2,0,0,0-.51,1.12Z" transform="translate(-34.8 -24.55)"/><path class="cls-2" d="M133.4,24.55V35h-1.93V24.55Z" transform="translate(-34.8 -24.55)"/><path class="cls-2" d="M136.55,31.67a2.28,2.28,0,0,0,.58,1.49,1.75,1.75,0,0,0,1.27.47,2.39,2.39,0,0,0,.69-.1,3,3,0,0,0,.51-.21l.4-.21a.76.76,0,0,1,.35-.09.39.39,0,0,1,.35.17l.56.7a3.43,3.43,0,0,1-.68.59,3.89,3.89,0,0,1-.77.37,4.43,4.43,0,0,1-.8.19,7.29,7.29,0,0,1-.79.05,3.88,3.88,0,0,1-1.41-.25,3.18,3.18,0,0,1-1.14-.73,3.64,3.64,0,0,1-.77-1.21,4.75,4.75,0,0,1-.28-1.67,3.77,3.77,0,0,1,.25-1.39,3.34,3.34,0,0,1,.69-1.13,3.25,3.25,0,0,1,1.11-.77,3.6,3.6,0,0,1,1.47-.28,3.55,3.55,0,0,1,1.28.22,2.81,2.81,0,0,1,1.66,1.67,3.8,3.8,0,0,1,.24,1.4,3.16,3.16,0,0,1,0,.35.9.9,0,0,1-.07.23.3.3,0,0,1-.14.11.62.62,0,0,1-.21,0Zm3-1.14a2.14,2.14,0,0,0-.08-.58,1.4,1.4,0,0,0-.26-.48,1.22,1.22,0,0,0-.44-.33,1.41,1.41,0,0,0-.64-.13,1.43,1.43,0,0,0-1.08.4,2,2,0,0,0-.51,1.12Z" transform="translate(-34.8 -24.55)"/><path class="cls-2" d="M142.35,28.77a4.5,4.5,0,0,1,1.41-.86,4.76,4.76,0,0,1,1.67-.28,3,3,0,0,1,1.15.21,2.56,2.56,0,0,1,.86.58,2.76,2.76,0,0,1,.54.89,3.25,3.25,0,0,1,.19,1.14V35h-.88a1,1,0,0,1-.42-.07.55.55,0,0,1-.23-.32l-.16-.47a6.06,6.06,0,0,1-.53.42,3.1,3.1,0,0,1-.52.31,2.88,2.88,0,0,1-.59.18,3,3,0,0,1-.7.07,2.93,2.93,0,0,1-.86-.13,1.7,1.7,0,0,1-1.12-1,2.31,2.31,0,0,1-.15-.86,1.85,1.85,0,0,1,.2-.8,2.07,2.07,0,0,1,.7-.72,4.34,4.34,0,0,1,1.31-.54,9.5,9.5,0,0,1,2.07-.24v-.37a1.47,1.47,0,0,0-.29-1,1.07,1.07,0,0,0-.83-.32,1.83,1.83,0,0,0-.66.1,3.49,3.49,0,0,0-.47.2l-.37.2a.78.78,0,0,1-.41.1.62.62,0,0,1-.34-.1.88.88,0,0,1-.22-.25Zm3.94,3.2a8.15,8.15,0,0,0-1.18.12,2.78,2.78,0,0,0-.75.23,1,1,0,0,0-.39.32.7.7,0,0,0-.11.38.73.73,0,0,0,.23.6,1.08,1.08,0,0,0,.66.17,1.78,1.78,0,0,0,.83-.17,2.52,2.52,0,0,0,.71-.53Z" transform="translate(-34.8 -24.55)"/><path class="cls-2" d="M154.17,29.25a.53.53,0,0,1-.16.17.36.36,0,0,1-.22.06.82.82,0,0,1-.29-.07l-.33-.16-.41-.15a2.21,2.21,0,0,0-.54-.07,1.18,1.18,0,0,0-.73.2.58.58,0,0,0-.26.5.5.5,0,0,0,.15.37,1.09,1.09,0,0,0,.38.25,4.89,4.89,0,0,0,.55.21l.64.2c.21.08.42.16.63.26a2.12,2.12,0,0,1,.55.37,1.64,1.64,0,0,1,.54,1.28,2.37,2.37,0,0,1-.2,1,2,2,0,0,1-.56.77,2.63,2.63,0,0,1-.92.5,3.87,3.87,0,0,1-1.28.19A4.4,4.4,0,0,1,151,35a3.78,3.78,0,0,1-.7-.19,4.9,4.9,0,0,1-.61-.28,3.37,3.37,0,0,1-.5-.35l.45-.72a.52.52,0,0,1,.19-.2.56.56,0,0,1,.3-.07.62.62,0,0,1,.32.09l.33.19a3.63,3.63,0,0,0,.43.19,2.17,2.17,0,0,0,.62.08,1.65,1.65,0,0,0,.48-.06.85.85,0,0,0,.33-.17.76.76,0,0,0,.19-.25.67.67,0,0,0,.06-.28.53.53,0,0,0-.15-.39,1.46,1.46,0,0,0-.4-.26,3.18,3.18,0,0,0-.55-.2c-.21-.06-.43-.13-.64-.21a5,5,0,0,1-.64-.26,2,2,0,0,1-.55-.39,1.87,1.87,0,0,1-.4-.58,2.09,2.09,0,0,1-.15-.83,2.06,2.06,0,0,1,.18-.85,2,2,0,0,1,.52-.71,2.58,2.58,0,0,1,.88-.49,4.07,4.07,0,0,1,2.6.07,3.09,3.09,0,0,1,1,.66Z" transform="translate(-34.8 -24.55)"/><path class="cls-2" d="M157.42,31.67a2.33,2.33,0,0,0,.57,1.49,1.78,1.78,0,0,0,1.27.47,2.29,2.29,0,0,0,.69-.1,2.45,2.45,0,0,0,.51-.21l.4-.21a.8.8,0,0,1,.36-.09.4.4,0,0,1,.35.17l.56.7a3.43,3.43,0,0,1-.68.59,4.17,4.17,0,0,1-.77.37,4.75,4.75,0,0,1-.81.19,7.11,7.11,0,0,1-.78.05,3.8,3.8,0,0,1-1.41-.25,3.1,3.1,0,0,1-1.14-.73,3.49,3.49,0,0,1-.77-1.21,4.53,4.53,0,0,1-.28-1.67,4,4,0,0,1,.24-1.39,3.36,3.36,0,0,1,.7-1.13,3.21,3.21,0,0,1,1.1-.77,3.67,3.67,0,0,1,1.47-.28,3.51,3.51,0,0,1,1.28.22,2.72,2.72,0,0,1,1,.64,2.94,2.94,0,0,1,.66,1,4,4,0,0,1,.23,1.4,1.78,1.78,0,0,1,0,.35.63.63,0,0,1-.07.23.28.28,0,0,1-.13.11.69.69,0,0,1-.22,0Zm3-1.14a1.81,1.81,0,0,0-.08-.58,1.38,1.38,0,0,0-.25-.48,1.31,1.31,0,0,0-.44-.33A1.41,1.41,0,0,0,159,29a1.46,1.46,0,0,0-1.09.4,2,2,0,0,0-.51,1.12Z" transform="translate(-34.8 -24.55)"/><path class="cls-2" d="M42.84,108.57h-3V117h-2.1v-8.46h-3v-1.7h8Z" transform="translate(-34.8 -24.55)"/><path class="cls-2" d="M45.65,110.52a4.35,4.35,0,0,1,.42-.33,3.1,3.1,0,0,1,.47-.26,3,3,0,0,1,.53-.17,3,3,0,0,1,.62-.06,2.61,2.61,0,0,1,1,.2,2.31,2.31,0,0,1,.77.57,2.41,2.41,0,0,1,.46.87,3.54,3.54,0,0,1,.16,1.11V117H48.2v-4.58a1.44,1.44,0,0,0-.28-.94,1,1,0,0,0-.83-.33,1.8,1.8,0,0,0-.76.17,2.6,2.6,0,0,0-.68.49V117H43.72V106.59h1.93Z" transform="translate(-34.8 -24.55)"/><path class="cls-2" d="M58,109.81V117H56.8a.45.45,0,0,1-.48-.34l-.12-.5-.45.39a4,4,0,0,1-.49.3,2.93,2.93,0,0,1-1.23.26,2.69,2.69,0,0,1-1.05-.2,2.17,2.17,0,0,1-.76-.57,2.28,2.28,0,0,1-.47-.87,3.48,3.48,0,0,1-.16-1.1v-4.59h1.93v4.59a1.43,1.43,0,0,0,.27.93,1,1,0,0,0,.83.34,1.67,1.67,0,0,0,.76-.18,2.78,2.78,0,0,0,.68-.49v-5.19Z" transform="translate(-34.8 -24.55)"/><path class="cls-2" d="M61.4,111a3.25,3.25,0,0,1,.79-1,1.63,1.63,0,0,1,1.05-.36,1.33,1.33,0,0,1,.8.23l-.13,1.43a.32.32,0,0,1-.11.2.37.37,0,0,1-.2,0l-.32,0a2.87,2.87,0,0,0-.39,0,1.36,1.36,0,0,0-.47.08,1.07,1.07,0,0,0-.37.22,1.62,1.62,0,0,0-.29.34,2.84,2.84,0,0,0-.24.46V117H59.59v-7.22h1.14a.58.58,0,0,1,.4.11.61.61,0,0,1,.16.36Z" transform="translate(-34.8 -24.55)"/><path class="cls-2" d="M69.34,111.3a.66.66,0,0,1-.16.17.45.45,0,0,1-.22,0,.65.65,0,0,1-.29-.07l-.33-.15-.41-.15a1.84,1.84,0,0,0-.55-.07,1.16,1.16,0,0,0-.72.19.59.59,0,0,0-.26.51.51.51,0,0,0,.14.36,1.26,1.26,0,0,0,.39.26,4.94,4.94,0,0,0,.55.2l.64.21a5.59,5.59,0,0,1,.63.26,2.31,2.31,0,0,1,.55.37,1.62,1.62,0,0,1,.39.53,1.73,1.73,0,0,1,.14.75,2.4,2.4,0,0,1-.19,1,2.12,2.12,0,0,1-.56.77,2.75,2.75,0,0,1-.93.5,4.05,4.05,0,0,1-1.27.18,4.4,4.4,0,0,1-.73-.06,4.77,4.77,0,0,1-.7-.19,3.81,3.81,0,0,1-.61-.29,2.34,2.34,0,0,1-.5-.35l.45-.72a.5.5,0,0,1,.19-.19.56.56,0,0,1,.3-.07.72.72,0,0,1,.32.08l.33.19a2.5,2.5,0,0,0,.43.19,1.81,1.81,0,0,0,.62.09,1.65,1.65,0,0,0,.48-.06,1,1,0,0,0,.33-.17.87.87,0,0,0,.19-.25.71.71,0,0,0,.06-.28.5.5,0,0,0-.16-.39,1.26,1.26,0,0,0-.39-.26,3.16,3.16,0,0,0-.55-.21l-.64-.2a5.11,5.11,0,0,1-.64-.27,2,2,0,0,1-.55-.39,1.72,1.72,0,0,1-.4-.57,2.25,2.25,0,0,1,0-1.69,2.2,2.2,0,0,1,.52-.71,2.82,2.82,0,0,1,.87-.49,3.71,3.71,0,0,1,1.21-.18,3.88,3.88,0,0,1,1.4.25,3.09,3.09,0,0,1,1,.66Z" transform="translate(-34.8 -24.55)"/><path class="cls-2" d="M129,108.57h-3V117h-2.1v-8.46h-3v-1.7h8Z" transform="translate(-34.8 -24.55)"/><path class="cls-2" d="M131.79,110.52q.21-.18.42-.33a3.1,3.1,0,0,1,.47-.26,3.27,3.27,0,0,1,.53-.17,3,3,0,0,1,.62-.06,2.61,2.61,0,0,1,1,.2,2.31,2.31,0,0,1,.77.57,2.59,2.59,0,0,1,.47.87,3.87,3.87,0,0,1,.15,1.11V117h-1.92v-4.58a1.44,1.44,0,0,0-.28-.94,1,1,0,0,0-.83-.33,1.8,1.8,0,0,0-.76.17,2.6,2.6,0,0,0-.68.49V117h-1.93V106.59h1.93Z" transform="translate(-34.8 -24.55)"/><path class="cls-2" d="M144.13,109.81V117h-1.19a.45.45,0,0,1-.48-.34l-.12-.5q-.22.21-.45.39a4,4,0,0,1-.49.3,2.93,2.93,0,0,1-1.23.26,2.69,2.69,0,0,1-1-.2,2.17,2.17,0,0,1-.76-.57,2.28,2.28,0,0,1-.47-.87,3.48,3.48,0,0,1-.16-1.1v-4.59h1.93v4.59a1.43,1.43,0,0,0,.27.93,1,1,0,0,0,.83.34,1.67,1.67,0,0,0,.76-.18,2.78,2.78,0,0,0,.68-.49v-5.19Z" transform="translate(-34.8 -24.55)"/><path class="cls-2" d="M147.54,111a3.25,3.25,0,0,1,.79-1,1.63,1.63,0,0,1,1-.36,1.33,1.33,0,0,1,.8.23l-.13,1.43a.32.32,0,0,1-.11.2.34.34,0,0,1-.2,0l-.32,0a2.87,2.87,0,0,0-.39,0,1.36,1.36,0,0,0-.47.08,1.07,1.07,0,0,0-.37.22,1.62,1.62,0,0,0-.29.34,2.84,2.84,0,0,0-.24.46V117h-1.93v-7.22h1.14a.58.58,0,0,1,.4.11.61.61,0,0,1,.16.36Z" transform="translate(-34.8 -24.55)"/><path class="cls-2" d="M155.48,111.3a.66.66,0,0,1-.16.17.45.45,0,0,1-.22,0,.65.65,0,0,1-.29-.07l-.33-.15-.41-.15a1.81,1.81,0,0,0-.54-.07,1.18,1.18,0,0,0-.73.19.59.59,0,0,0-.26.51.48.48,0,0,0,.15.36,1.11,1.11,0,0,0,.38.26,4.94,4.94,0,0,0,.55.2l.64.21a5.59,5.59,0,0,1,.63.26,2.12,2.12,0,0,1,.55.37,1.62,1.62,0,0,1,.39.53,1.73,1.73,0,0,1,.15.75,2.4,2.4,0,0,1-.2,1,2.12,2.12,0,0,1-.56.77,2.8,2.8,0,0,1-.92.5,4.17,4.17,0,0,1-1.28.18,4.4,4.4,0,0,1-.73-.06,4.77,4.77,0,0,1-.7-.19,3.81,3.81,0,0,1-.61-.29,2.34,2.34,0,0,1-.5-.35l.45-.72a.5.5,0,0,1,.19-.19.56.56,0,0,1,.3-.07.72.72,0,0,1,.32.08l.33.19a2.5,2.5,0,0,0,.43.19,1.85,1.85,0,0,0,.62.09,1.65,1.65,0,0,0,.48-.06,1,1,0,0,0,.33-.17.87.87,0,0,0,.19-.25.71.71,0,0,0,.06-.28.53.53,0,0,0-.15-.39,1.32,1.32,0,0,0-.4-.26,3.16,3.16,0,0,0-.55-.21l-.64-.2a5.11,5.11,0,0,1-.64-.27,2,2,0,0,1-.55-.39,1.72,1.72,0,0,1-.4-.57,2.25,2.25,0,0,1,0-1.69,2.2,2.2,0,0,1,.52-.71,2.76,2.76,0,0,1,.88-.49,3.65,3.65,0,0,1,1.2-.18,3.88,3.88,0,0,1,1.4.25,3.09,3.09,0,0,1,1,.66Z" transform="translate(-34.8 -24.55)"/><path class="cls-2" d="M210.28,108.57h-3V117h-2.11v-8.46h-3v-1.7h8Z" transform="translate(-34.8 -24.55)"/><path class="cls-2" d="M213.09,110.52q.21-.18.42-.33a3.1,3.1,0,0,1,.47-.26,3.27,3.27,0,0,1,.53-.17,3,3,0,0,1,.62-.06,2.61,2.61,0,0,1,1,.2,2.31,2.31,0,0,1,.77.57,2.59,2.59,0,0,1,.47.87,3.87,3.87,0,0,1,.15,1.11V117h-1.92v-4.58a1.39,1.39,0,0,0-.28-.94,1,1,0,0,0-.83-.33,1.8,1.8,0,0,0-.76.17,2.78,2.78,0,0,0-.68.49V117h-1.93V106.59h1.93Z" transform="translate(-34.8 -24.55)"/><path class="cls-2" d="M225.43,109.81V117h-1.19a.44.44,0,0,1-.47-.34l-.13-.5a5.46,5.46,0,0,1-.45.39,4,4,0,0,1-.49.3,2.93,2.93,0,0,1-1.23.26,2.69,2.69,0,0,1-1.05-.2,2.17,2.17,0,0,1-.76-.57,2.28,2.28,0,0,1-.47-.87,3.48,3.48,0,0,1-.16-1.1v-4.59H221v4.59a1.38,1.38,0,0,0,.28.93,1,1,0,0,0,.82.34,1.67,1.67,0,0,0,.76-.18,2.78,2.78,0,0,0,.68-.49v-5.19Z" transform="translate(-34.8 -24.55)"/><path class="cls-2" d="M228.84,111a3.25,3.25,0,0,1,.79-1,1.63,1.63,0,0,1,1.05-.36,1.33,1.33,0,0,1,.8.23l-.13,1.43a.37.37,0,0,1-.1.2.39.39,0,0,1-.2,0l-.33,0a2.87,2.87,0,0,0-.39,0,1.36,1.36,0,0,0-.47.08,1.07,1.07,0,0,0-.37.22,1.62,1.62,0,0,0-.29.34,2.84,2.84,0,0,0-.24.46V117H227v-7.22h1.14a.58.58,0,0,1,.4.11.67.67,0,0,1,.17.36Z" transform="translate(-34.8 -24.55)"/><path class="cls-2" d="M236.78,111.3a.53.53,0,0,1-.16.17.45.45,0,0,1-.22,0,.65.65,0,0,1-.29-.07l-.33-.15-.41-.15a1.81,1.81,0,0,0-.54-.07,1.18,1.18,0,0,0-.73.19.62.62,0,0,0-.26.51.48.48,0,0,0,.15.36,1.11,1.11,0,0,0,.38.26,5.81,5.81,0,0,0,.55.2l.64.21a4.91,4.91,0,0,1,.63.26,2.12,2.12,0,0,1,.55.37,1.62,1.62,0,0,1,.39.53,1.73,1.73,0,0,1,.15.75,2.4,2.4,0,0,1-.2,1,2.12,2.12,0,0,1-.56.77,2.8,2.8,0,0,1-.92.5,4.17,4.17,0,0,1-1.28.18,4.4,4.4,0,0,1-.73-.06,4.77,4.77,0,0,1-.7-.19,3.81,3.81,0,0,1-.61-.29,2.34,2.34,0,0,1-.5-.35l.45-.72a.5.5,0,0,1,.19-.19.56.56,0,0,1,.3-.07.69.69,0,0,1,.32.08l.33.19a2.5,2.5,0,0,0,.43.19,1.85,1.85,0,0,0,.62.09,1.65,1.65,0,0,0,.48-.06,1,1,0,0,0,.33-.17.72.72,0,0,0,.19-.25.71.71,0,0,0,.06-.28.53.53,0,0,0-.15-.39,1.21,1.21,0,0,0-.4-.26,3.16,3.16,0,0,0-.55-.21l-.64-.2a5.11,5.11,0,0,1-.64-.27,2,2,0,0,1-.55-.39,1.69,1.69,0,0,1-.39-.57,1.94,1.94,0,0,1-.15-.84,2.08,2.08,0,0,1,.17-.85,2.2,2.2,0,0,1,.52-.71,2.76,2.76,0,0,1,.88-.49,3.65,3.65,0,0,1,1.2-.18,3.88,3.88,0,0,1,1.4.25,3.09,3.09,0,0,1,1,.66Z" transform="translate(-34.8 -24.55)"/><path class="cls-2" d="M296.42,108.57h-3V117h-2.11v-8.46h-3v-1.7h8Z" transform="translate(-34.8 -24.55)"/><path class="cls-2" d="M299.23,110.52l.42-.33a2.76,2.76,0,0,1,1-.43,2.87,2.87,0,0,1,.61-.06,2.61,2.61,0,0,1,1,.2,2.31,2.31,0,0,1,.77.57,2.59,2.59,0,0,1,.47.87,3.87,3.87,0,0,1,.15,1.11V117h-1.92v-4.58a1.39,1.39,0,0,0-.28-.94,1,1,0,0,0-.83-.33,1.8,1.8,0,0,0-.76.17,2.78,2.78,0,0,0-.68.49V117H297.3V106.59h1.93Z" transform="translate(-34.8 -24.55)"/><path class="cls-2" d="M311.57,109.81V117h-1.19a.44.44,0,0,1-.47-.34l-.13-.5a4.19,4.19,0,0,1-.45.39,4,4,0,0,1-.49.3,2.93,2.93,0,0,1-1.23.26,2.69,2.69,0,0,1-1.05-.2,2.17,2.17,0,0,1-.76-.57,2.43,2.43,0,0,1-.47-.87,3.48,3.48,0,0,1-.16-1.1v-4.59h1.93v4.59a1.38,1.38,0,0,0,.28.93,1,1,0,0,0,.82.34,1.67,1.67,0,0,0,.76-.18,2.6,2.6,0,0,0,.68-.49v-5.19Z" transform="translate(-34.8 -24.55)"/><path class="cls-2" d="M315,111a3.25,3.25,0,0,1,.79-1,1.63,1.63,0,0,1,1.05-.36,1.33,1.33,0,0,1,.8.23l-.13,1.43a.37.37,0,0,1-.1.2.39.39,0,0,1-.2,0l-.33,0a2.87,2.87,0,0,0-.39,0,1.36,1.36,0,0,0-.47.08,1.07,1.07,0,0,0-.37.22,2,2,0,0,0-.29.34,4,4,0,0,0-.24.46V117h-1.93v-7.22h1.14a.63.63,0,0,1,.41.11.76.76,0,0,1,.16.36Z" transform="translate(-34.8 -24.55)"/><path class="cls-2" d="M322.92,111.3a.53.53,0,0,1-.16.17.45.45,0,0,1-.22,0,.65.65,0,0,1-.29-.07l-.32-.15-.42-.15a1.81,1.81,0,0,0-.54-.07,1.18,1.18,0,0,0-.73.19.62.62,0,0,0-.26.51.48.48,0,0,0,.15.36,1.11,1.11,0,0,0,.38.26,5.81,5.81,0,0,0,.55.2l.64.21a4.91,4.91,0,0,1,.63.26,2.12,2.12,0,0,1,.55.37,1.62,1.62,0,0,1,.39.53,1.73,1.73,0,0,1,.15.75,2.4,2.4,0,0,1-.2,1,2,2,0,0,1-.56.77,2.7,2.7,0,0,1-.92.5,4.17,4.17,0,0,1-1.28.18,4.4,4.4,0,0,1-.73-.06,4.77,4.77,0,0,1-.7-.19,4.27,4.27,0,0,1-.61-.29,2.34,2.34,0,0,1-.5-.35l.45-.72a.57.57,0,0,1,.19-.19.56.56,0,0,1,.3-.07.69.69,0,0,1,.32.08l.33.19a2.91,2.91,0,0,0,.43.19,1.85,1.85,0,0,0,.62.09,1.65,1.65,0,0,0,.48-.06,1,1,0,0,0,.33-.17.72.72,0,0,0,.19-.25.71.71,0,0,0,.06-.28.53.53,0,0,0-.15-.39,1.21,1.21,0,0,0-.4-.26,3.16,3.16,0,0,0-.55-.21l-.64-.2a5.11,5.11,0,0,1-.64-.27,2,2,0,0,1-.55-.39,1.69,1.69,0,0,1-.39-.57,2.09,2.09,0,0,1,.55-2.4,2.6,2.6,0,0,1,.87-.49,3.65,3.65,0,0,1,1.2-.18,3.88,3.88,0,0,1,1.4.25,3.09,3.09,0,0,1,1,.66Z" transform="translate(-34.8 -24.55)"/><path class="cls-2" d="M377.73,108.57h-3V117h-2.11v-8.46h-3v-1.7h8.05Z" transform="translate(-34.8 -24.55)"/><path class="cls-2" d="M380.53,110.52a4.46,4.46,0,0,1,.43-.33,2.59,2.59,0,0,1,.46-.26,3.09,3.09,0,0,1,.54-.17,2.93,2.93,0,0,1,.61-.06,2.61,2.61,0,0,1,1,.2,2.21,2.21,0,0,1,.77.57,2.43,2.43,0,0,1,.47.87,3.86,3.86,0,0,1,.16,1.11V117h-1.93v-4.58a1.39,1.39,0,0,0-.28-.94,1,1,0,0,0-.83-.33,1.8,1.8,0,0,0-.76.17,2.78,2.78,0,0,0-.68.49V117H378.6V106.59h1.93Z" transform="translate(-34.8 -24.55)"/><path class="cls-2" d="M392.87,109.81V117h-1.19a.45.45,0,0,1-.47-.34l-.13-.5a4.19,4.19,0,0,1-.45.39,3.37,3.37,0,0,1-.49.3,2.54,2.54,0,0,1-.57.19,2.73,2.73,0,0,1-.66.07,2.69,2.69,0,0,1-1.05-.2,2.17,2.17,0,0,1-.76-.57,2.43,2.43,0,0,1-.47-.87,3.48,3.48,0,0,1-.16-1.1v-4.59h1.93v4.59a1.38,1.38,0,0,0,.28.93,1,1,0,0,0,.82.34,1.67,1.67,0,0,0,.76-.18,2.6,2.6,0,0,0,.68-.49v-5.19Z" transform="translate(-34.8 -24.55)"/><path class="cls-2" d="M396.28,111a3.41,3.41,0,0,1,.79-1,1.63,1.63,0,0,1,1.05-.36,1.31,1.31,0,0,1,.8.23l-.12,1.43a.38.38,0,0,1-.11.2.39.39,0,0,1-.2,0l-.32,0a3,3,0,0,0-.4,0,1.4,1.4,0,0,0-.47.08,1.07,1.07,0,0,0-.37.22,2,2,0,0,0-.29.34c-.08.14-.16.29-.24.46V117h-1.93v-7.22h1.14a.61.61,0,0,1,.41.11.76.76,0,0,1,.16.36Z" transform="translate(-34.8 -24.55)"/><path class="cls-2" d="M404.22,111.3a.53.53,0,0,1-.16.17.42.42,0,0,1-.22,0,.58.58,0,0,1-.28-.07l-.33-.15-.42-.15a1.81,1.81,0,0,0-.54-.07,1.18,1.18,0,0,0-.73.19.62.62,0,0,0-.26.51.48.48,0,0,0,.15.36,1.26,1.26,0,0,0,.39.26,4.3,4.3,0,0,0,.55.2l.63.21a4.39,4.39,0,0,1,.63.26,2.12,2.12,0,0,1,.55.37,1.62,1.62,0,0,1,.39.53,1.73,1.73,0,0,1,.15.75,2.58,2.58,0,0,1-.19,1,2.15,2.15,0,0,1-.57.77,2.7,2.7,0,0,1-.92.5,4.17,4.17,0,0,1-1.28.18,4.49,4.49,0,0,1-.73-.06,4.63,4.63,0,0,1-.69-.19,3.92,3.92,0,0,1-.62-.29,2.34,2.34,0,0,1-.5-.35l.45-.72a.57.57,0,0,1,.19-.19.56.56,0,0,1,.3-.07.69.69,0,0,1,.32.08l.33.19a2.91,2.91,0,0,0,.43.19,1.85,1.85,0,0,0,.62.09,1.65,1.65,0,0,0,.48-.06,1,1,0,0,0,.33-.17.72.72,0,0,0,.19-.25.71.71,0,0,0,.06-.28.53.53,0,0,0-.15-.39,1.26,1.26,0,0,0-.39-.26,3.64,3.64,0,0,0-.56-.21l-.64-.2a5.11,5.11,0,0,1-.64-.27,2,2,0,0,1-.55-.39,1.69,1.69,0,0,1-.39-.57,2.09,2.09,0,0,1,.55-2.4,2.6,2.6,0,0,1,.87-.49,3.71,3.71,0,0,1,1.21-.18,3.92,3.92,0,0,1,1.4.25,3,3,0,0,1,1,.66Z" transform="translate(-34.8 -24.55)"/><path class="cls-2" d="M463.87,108.57h-3V117h-2.11v-8.46h-3v-1.7h8.05Z" transform="translate(-34.8 -24.55)"/><path class="cls-2" d="M466.67,110.52a4.46,4.46,0,0,1,.43-.33,2.37,2.37,0,0,1,.47-.26,2.74,2.74,0,0,1,.53-.17,2.93,2.93,0,0,1,.61-.06,2.61,2.61,0,0,1,1,.2,2.21,2.21,0,0,1,.77.57,2.43,2.43,0,0,1,.47.87,3.86,3.86,0,0,1,.16,1.11V117h-1.93v-4.58a1.39,1.39,0,0,0-.28-.94,1,1,0,0,0-.83-.33,1.8,1.8,0,0,0-.76.17,2.78,2.78,0,0,0-.68.49V117h-1.93V106.59h1.93Z" transform="translate(-34.8 -24.55)"/><path class="cls-2" d="M479,109.81V117h-1.19a.45.45,0,0,1-.47-.34l-.13-.5a4.19,4.19,0,0,1-.45.39,3.37,3.37,0,0,1-.49.3,2.39,2.39,0,0,1-.57.19,2.73,2.73,0,0,1-.66.07,2.61,2.61,0,0,1-1-.2,2.21,2.21,0,0,1-.77-.57,2.43,2.43,0,0,1-.47-.87,3.48,3.48,0,0,1-.16-1.1v-4.59h1.93v4.59a1.38,1.38,0,0,0,.28.93,1,1,0,0,0,.82.34,1.64,1.64,0,0,0,.76-.18,2.6,2.6,0,0,0,.68-.49v-5.19Z" transform="translate(-34.8 -24.55)"/><path class="cls-2" d="M482.42,111a3.41,3.41,0,0,1,.79-1,1.63,1.63,0,0,1,1.05-.36,1.31,1.31,0,0,1,.8.23l-.12,1.43a.38.38,0,0,1-.11.2.39.39,0,0,1-.2,0l-.32,0a2.85,2.85,0,0,0-.4,0,1.4,1.4,0,0,0-.47.08,1.07,1.07,0,0,0-.37.22,2,2,0,0,0-.29.34c-.08.14-.16.29-.24.46V117h-1.93v-7.22h1.14a.61.61,0,0,1,.41.11.67.67,0,0,1,.16.36Z" transform="translate(-34.8 -24.55)"/><path class="cls-2" d="M490.36,111.3a.53.53,0,0,1-.16.17.42.42,0,0,1-.22,0,.58.58,0,0,1-.28-.07l-.33-.15-.42-.15a1.81,1.81,0,0,0-.54-.07,1.2,1.2,0,0,0-.73.19.62.62,0,0,0-.26.51.48.48,0,0,0,.15.36,1.26,1.26,0,0,0,.39.26,4.3,4.3,0,0,0,.55.2l.63.21a4.39,4.39,0,0,1,.63.26,2.12,2.12,0,0,1,.55.37,1.62,1.62,0,0,1,.39.53,1.73,1.73,0,0,1,.15.75,2.58,2.58,0,0,1-.19,1,2.15,2.15,0,0,1-.57.77,2.61,2.61,0,0,1-.92.5,4.1,4.1,0,0,1-1.27.18,4.52,4.52,0,0,1-.74-.06,5,5,0,0,1-.69-.19,3.92,3.92,0,0,1-.62-.29,2.34,2.34,0,0,1-.5-.35l.45-.72a.57.57,0,0,1,.19-.19.56.56,0,0,1,.3-.07.66.66,0,0,1,.32.08l.33.19a2.91,2.91,0,0,0,.43.19,1.89,1.89,0,0,0,.62.09,1.77,1.77,0,0,0,.49-.06,1.07,1.07,0,0,0,.32-.17.72.72,0,0,0,.19-.25.71.71,0,0,0,.06-.28.53.53,0,0,0-.15-.39,1.26,1.26,0,0,0-.39-.26,3.28,3.28,0,0,0-.56-.21l-.64-.2a5.11,5.11,0,0,1-.64-.27,2.12,2.12,0,0,1-.55-.39,1.69,1.69,0,0,1-.39-.57,2.1,2.1,0,0,1-.15-.84,2.26,2.26,0,0,1,.17-.85,2.1,2.1,0,0,1,.53-.71,2.6,2.6,0,0,1,.87-.49,3.71,3.71,0,0,1,1.21-.18,3.92,3.92,0,0,1,1.4.25,3,3,0,0,1,1,.66Z" transform="translate(-34.8 -24.55)"/><path class="cls-2" d="M545.17,108.57h-3V117h-2.11v-8.46h-3v-1.7h8Z" transform="translate(-34.8 -24.55)"/><path class="cls-2" d="M548,110.52a4.46,4.46,0,0,1,.43-.33,2.37,2.37,0,0,1,.47-.26,2.74,2.74,0,0,1,.53-.17,2.93,2.93,0,0,1,.61-.06,2.61,2.61,0,0,1,1,.2,2.21,2.21,0,0,1,.77.57,2.43,2.43,0,0,1,.47.87,3.86,3.86,0,0,1,.16,1.11V117h-1.93v-4.58a1.39,1.39,0,0,0-.28-.94,1,1,0,0,0-.82-.33,1.84,1.84,0,0,0-.77.17,2.78,2.78,0,0,0-.68.49V117H546V106.59H548Z" transform="translate(-34.8 -24.55)"/><path class="cls-2" d="M560.31,109.81V117h-1.19a.45.45,0,0,1-.47-.34l-.13-.5a4.19,4.19,0,0,1-.45.39,3.37,3.37,0,0,1-.49.3,2.39,2.39,0,0,1-.57.19,2.73,2.73,0,0,1-.66.07,2.61,2.61,0,0,1-1-.2,2.12,2.12,0,0,1-.77-.57,2.43,2.43,0,0,1-.47-.87,3.48,3.48,0,0,1-.16-1.1v-4.59h1.93v4.59a1.38,1.38,0,0,0,.28.93,1,1,0,0,0,.82.34,1.64,1.64,0,0,0,.76-.18,2.6,2.6,0,0,0,.68-.49v-5.19Z" transform="translate(-34.8 -24.55)"/><path class="cls-2" d="M563.72,111a3.41,3.41,0,0,1,.79-1,1.64,1.64,0,0,1,1.06-.36,1.3,1.3,0,0,1,.79.23l-.12,1.43a.38.38,0,0,1-.11.2.39.39,0,0,1-.2,0l-.32,0a2.85,2.85,0,0,0-.4,0,1.4,1.4,0,0,0-.47.08,1.07,1.07,0,0,0-.37.22,2,2,0,0,0-.29.34c-.08.14-.16.29-.24.46V117h-1.93v-7.22h1.14a.61.61,0,0,1,.41.11.67.67,0,0,1,.16.36Z" transform="translate(-34.8 -24.55)"/><path class="cls-2" d="M571.66,111.3a.53.53,0,0,1-.16.17.42.42,0,0,1-.22,0,.58.58,0,0,1-.28-.07l-.33-.15-.42-.15a1.77,1.77,0,0,0-.54-.07,1.2,1.2,0,0,0-.73.19.62.62,0,0,0-.26.51.48.48,0,0,0,.15.36,1.26,1.26,0,0,0,.39.26,4.3,4.3,0,0,0,.55.2l.63.21a4.39,4.39,0,0,1,.63.26,2.12,2.12,0,0,1,.55.37,1.62,1.62,0,0,1,.39.53,1.73,1.73,0,0,1,.15.75,2.58,2.58,0,0,1-.19,1,2.15,2.15,0,0,1-.57.77,2.61,2.61,0,0,1-.92.5,4.12,4.12,0,0,1-1.28.18,4.49,4.49,0,0,1-.73-.06,5,5,0,0,1-.69-.19,3.92,3.92,0,0,1-.62-.29,2.34,2.34,0,0,1-.5-.35l.45-.72a.57.57,0,0,1,.19-.19.56.56,0,0,1,.3-.07.66.66,0,0,1,.32.08l.33.19a2.91,2.91,0,0,0,.43.19,1.89,1.89,0,0,0,.62.09,1.77,1.77,0,0,0,.49-.06,1.07,1.07,0,0,0,.32-.17.72.72,0,0,0,.19-.25.71.71,0,0,0,.06-.28.53.53,0,0,0-.15-.39,1.26,1.26,0,0,0-.39-.26,3.28,3.28,0,0,0-.56-.21l-.64-.2a5.11,5.11,0,0,1-.64-.27,2.12,2.12,0,0,1-.55-.39,1.69,1.69,0,0,1-.39-.57,2.1,2.1,0,0,1-.15-.84,2.26,2.26,0,0,1,.17-.85,2.1,2.1,0,0,1,.53-.71,2.6,2.6,0,0,1,.87-.49,3.71,3.71,0,0,1,1.21-.18,3.92,3.92,0,0,1,1.4.25,3,3,0,0,1,1,.66Z" transform="translate(-34.8 -24.55)"/><path class="cls-2" d="M458.58,35h-1.9a.83.83,0,0,1-.77-.4L454,31.46a.72.72,0,0,0-.26-.26.82.82,0,0,0-.42-.09h-.72V35h-2.1V24.83h3.19a6.43,6.43,0,0,1,1.82.22,3.35,3.35,0,0,1,1.24.61,2.28,2.28,0,0,1,.71.93,3.13,3.13,0,0,1,.22,1.2,3,3,0,0,1-.14.95,2.71,2.71,0,0,1-.42.83,3,3,0,0,1-.67.65,3.26,3.26,0,0,1-.91.47,1.65,1.65,0,0,1,.38.27,1.6,1.6,0,0,1,.31.37Zm-4.92-5.34a2.86,2.86,0,0,0,.88-.13,1.73,1.73,0,0,0,.61-.36,1.3,1.3,0,0,0,.35-.54,1.78,1.78,0,0,0,.11-.67,1.38,1.38,0,0,0-.48-1.12,2.27,2.27,0,0,0-1.46-.4h-1.09v3.22Z" transform="translate(-34.8 -24.55)"/><path class="cls-2" d="M460.37,31.67a2.33,2.33,0,0,0,.58,1.49,1.76,1.76,0,0,0,1.27.47,2.29,2.29,0,0,0,.69-.1,3,3,0,0,0,.51-.21l.4-.21a.79.79,0,0,1,.35-.09.39.39,0,0,1,.35.17l.56.7a3.38,3.38,0,0,1-.67.59,4,4,0,0,1-.78.37,4.43,4.43,0,0,1-.8.19,7.11,7.11,0,0,1-.78.05,3.8,3.8,0,0,1-1.41-.25,3.22,3.22,0,0,1-1.15-.73,3.47,3.47,0,0,1-.76-1.21,4.53,4.53,0,0,1-.28-1.67,4,4,0,0,1,.24-1.39,3.32,3.32,0,0,1,1.8-1.9,3.67,3.67,0,0,1,1.47-.28,3.55,3.55,0,0,1,1.28.22,2.81,2.81,0,0,1,1,.64,2.94,2.94,0,0,1,.66,1,4,4,0,0,1,.23,1.4,3.16,3.16,0,0,1,0,.35.9.9,0,0,1-.07.23.28.28,0,0,1-.13.11.69.69,0,0,1-.22,0Zm3-1.14a2.14,2.14,0,0,0-.08-.58,1.25,1.25,0,0,0-.26-.48,1.14,1.14,0,0,0-.44-.33A1.36,1.36,0,0,0,462,29a1.43,1.43,0,0,0-1.09.4,2,2,0,0,0-.51,1.12Z" transform="translate(-34.8 -24.55)"/><path class="cls-2" d="M468.28,24.55V35h-1.93V24.55Z" transform="translate(-34.8 -24.55)"/><path class="cls-2" d="M471.43,31.67a2.33,2.33,0,0,0,.58,1.49,1.76,1.76,0,0,0,1.27.47,2.29,2.29,0,0,0,.69-.1,3,3,0,0,0,.51-.21l.4-.21a.79.79,0,0,1,.35-.09.39.39,0,0,1,.35.17l.56.7a3.17,3.17,0,0,1-.68.59,3.81,3.81,0,0,1-.76.37,4.75,4.75,0,0,1-.81.19,7.11,7.11,0,0,1-.78.05,3.8,3.8,0,0,1-1.41-.25,3.22,3.22,0,0,1-1.15-.73,3.47,3.47,0,0,1-.76-1.21,4.53,4.53,0,0,1-.28-1.67,4,4,0,0,1,.24-1.39,3.32,3.32,0,0,1,1.8-1.9,3.67,3.67,0,0,1,1.47-.28,3.55,3.55,0,0,1,1.28.22,2.72,2.72,0,0,1,1,.64,2.94,2.94,0,0,1,.66,1,4,4,0,0,1,.23,1.4,3.16,3.16,0,0,1,0,.35.9.9,0,0,1-.07.23.28.28,0,0,1-.13.11.69.69,0,0,1-.22,0Zm3-1.14a2.14,2.14,0,0,0-.08-.58,1.25,1.25,0,0,0-.26-.48,1.14,1.14,0,0,0-.44-.33,1.36,1.36,0,0,0-.63-.13,1.43,1.43,0,0,0-1.09.4,2,2,0,0,0-.51,1.12Z" transform="translate(-34.8 -24.55)"/><path class="cls-2" d="M477.24,28.77a4.34,4.34,0,0,1,1.4-.86,4.8,4.8,0,0,1,1.67-.28,3,3,0,0,1,1.15.21,2.38,2.38,0,0,1,.86.58,2.45,2.45,0,0,1,.54.89,3.25,3.25,0,0,1,.19,1.14V35h-.88a1,1,0,0,1-.42-.07.59.59,0,0,1-.23-.32l-.15-.47c-.19.16-.36.3-.53.42a3.18,3.18,0,0,1-.53.31,2.71,2.71,0,0,1-.59.18,3.16,3.16,0,0,1-1.56-.06,1.94,1.94,0,0,1-.68-.37,1.69,1.69,0,0,1-.43-.62,2.13,2.13,0,0,1-.16-.86,1.74,1.74,0,0,1,.21-.8,2,2,0,0,1,.69-.72,4.3,4.3,0,0,1,1.32-.54,9.4,9.4,0,0,1,2.06-.24v-.37a1.47,1.47,0,0,0-.29-1,1,1,0,0,0-.82-.32,1.86,1.86,0,0,0-.67.1,2.88,2.88,0,0,0-.46.2l-.38.2a.74.74,0,0,1-.4.1.6.6,0,0,1-.34-.1.92.92,0,0,1-.23-.25Zm3.93,3.2a8.47,8.47,0,0,0-1.18.12,2.59,2.59,0,0,0-.74.23.86.86,0,0,0-.39.32.64.64,0,0,0-.12.38.7.7,0,0,0,.24.6,1,1,0,0,0,.65.17,1.86,1.86,0,0,0,.84-.17,2.49,2.49,0,0,0,.7-.53Z" transform="translate(-34.8 -24.55)"/><path class="cls-2" d="M489.05,29.25a.44.44,0,0,1-.16.17.34.34,0,0,1-.22.06.72.72,0,0,1-.28-.07l-.33-.16-.42-.15a2.14,2.14,0,0,0-.54-.07,1.2,1.2,0,0,0-.73.2.6.6,0,0,0-.26.5.5.5,0,0,0,.15.37,1.25,1.25,0,0,0,.39.25,4.24,4.24,0,0,0,.55.21l.63.2a5.93,5.93,0,0,1,.63.26,2.12,2.12,0,0,1,.55.37,1.64,1.64,0,0,1,.54,1.28,2.54,2.54,0,0,1-.19,1,2.07,2.07,0,0,1-.57.77,2.46,2.46,0,0,1-.92.5,3.87,3.87,0,0,1-1.28.19,4.51,4.51,0,0,1-.73-.07,3.9,3.9,0,0,1-.69-.19,5,5,0,0,1-.62-.28,3.37,3.37,0,0,1-.5-.35l.45-.72a.61.61,0,0,1,.19-.2.56.56,0,0,1,.3-.07.57.57,0,0,1,.32.09l.33.19a4.54,4.54,0,0,0,.43.19,2.22,2.22,0,0,0,.62.08,1.77,1.77,0,0,0,.49-.06.88.88,0,0,0,.32-.17.64.64,0,0,0,.19-.25.67.67,0,0,0,.06-.28.53.53,0,0,0-.15-.39,1.26,1.26,0,0,0-.39-.26,3.3,3.3,0,0,0-.56-.2L486,32a5,5,0,0,1-.64-.26,2.12,2.12,0,0,1-.55-.39,1.85,1.85,0,0,1-.39-.58,2.09,2.09,0,0,1-.15-.83,2.22,2.22,0,0,1,.17-.85,1.92,1.92,0,0,1,.53-.71,2.44,2.44,0,0,1,.87-.49,4.1,4.1,0,0,1,2.61.07,3,3,0,0,1,1,.66Z" transform="translate(-34.8 -24.55)"/><path class="cls-2" d="M492.3,31.67a2.28,2.28,0,0,0,.58,1.49,1.75,1.75,0,0,0,1.27.47,2.39,2.39,0,0,0,.69-.1,3,3,0,0,0,.51-.21l.4-.21a.76.76,0,0,1,.35-.09.39.39,0,0,1,.35.17l.56.7a3.17,3.17,0,0,1-.68.59,3.89,3.89,0,0,1-.77.37,4.43,4.43,0,0,1-.8.19,7.29,7.29,0,0,1-.79.05,3.88,3.88,0,0,1-1.41-.25,3.18,3.18,0,0,1-1.14-.73,3.64,3.64,0,0,1-.77-1.21,4.75,4.75,0,0,1-.28-1.67,3.77,3.77,0,0,1,.25-1.39,3.34,3.34,0,0,1,.69-1.13,3.25,3.25,0,0,1,1.11-.77,3.6,3.6,0,0,1,1.47-.28,3.55,3.55,0,0,1,1.28.22,2.81,2.81,0,0,1,1.66,1.67,3.8,3.8,0,0,1,.24,1.4,3.16,3.16,0,0,1,0,.35.9.9,0,0,1-.07.23.3.3,0,0,1-.14.11.62.62,0,0,1-.21,0Zm3-1.14a2.14,2.14,0,0,0-.08-.58,1.4,1.4,0,0,0-.26-.48,1.22,1.22,0,0,0-.44-.33,1.41,1.41,0,0,0-.64-.13,1.43,1.43,0,0,0-1.08.4,2,2,0,0,0-.51,1.12Z" transform="translate(-34.8 -24.55)"/></svg>