<svg id="Layer_3" data-name="Layer 3" xmlns="http://www.w3.org/2000/svg" viewBox="0 0 434 261.5"><defs><style>.cls-1{fill:none;stroke:#70b2e2;stroke-miterlimit:10;stroke-width:2px;}.cls-2{fill:#70b2e2;}.cls-3{fill:#fff;}</style></defs><title>theme-onion</title><path class="cls-1" d="M90,231C90,111.71,186.71,15,306,15s216,96.71,216,216" transform="translate(-89 -14)"/><path class="cls-1" d="M133.16,231a172.84,172.84,0,1,1,345.68,0" transform="translate(-89 -14)"/><path class="cls-1" d="M179.26,231a126.74,126.74,0,0,1,253.48,0" transform="translate(-89 -14)"/><path class="cls-1" d="M223.34,231a82.66,82.66,0,0,1,165.32,0" transform="translate(-89 -14)"/><circle class="cls-2" cx="217" cy="217" r="44.5"/><path class="cls-2" d="M243.29,46a.57.57,0,0,1-.09.26.43.43,0,0,1-.2.14.64.64,0,0,1-.34,0l-.46-.1a3.74,3.74,0,0,0-.61,0,2.26,2.26,0,0,0-.75.15,2.19,2.19,0,0,0-.61.32,1.46,1.46,0,0,0-.38.41,1,1,0,0,0-.14.48,1.36,1.36,0,0,0,.07.52.88.88,0,0,0,.39.49,1.74,1.74,0,0,0,.63.21,5.28,5.28,0,0,0,.81,0l.91,0a7,7,0,0,1,.92,0,2.92,2.92,0,0,1,.88.22,2.51,2.51,0,0,1,.75.53,2.64,2.64,0,0,1,.54.94,3.63,3.63,0,0,1,.21,1.29,3.13,3.13,0,0,1-.3,1.21,3.3,3.3,0,0,1-.81,1,4,4,0,0,1-1.32.74,4.86,4.86,0,0,1-.93.23,4.93,4.93,0,0,1-.94,0,4.44,4.44,0,0,1-.9-.13,3.54,3.54,0,0,1-.81-.29l.22-1a.65.65,0,0,1,.11-.22.52.52,0,0,1,.2-.14.64.64,0,0,1,.41,0l.56.14a4,4,0,0,0,.72.08,2.6,2.6,0,0,0,.9-.16,1.83,1.83,0,0,0,1-.78,1.37,1.37,0,0,0,.05-1.18,1,1,0,0,0-.41-.54,1.58,1.58,0,0,0-.63-.23,4.3,4.3,0,0,0-.81,0l-.89,0c-.3,0-.61,0-.92,0a2.61,2.61,0,0,1-.87-.23,2.24,2.24,0,0,1-.76-.56,2.86,2.86,0,0,1-.58-1,2.83,2.83,0,0,1,.14-2.18,3.25,3.25,0,0,1,.76-1,3.9,3.9,0,0,1,1.26-.7A4.62,4.62,0,0,1,242,44.7a3.55,3.55,0,0,1,1.47.31Z" transform="translate(-89 -14)"/><path class="cls-2" d="M247,43.77a.92.92,0,0,1,0,.43,1.09,1.09,0,0,1-.12.4,1.4,1.4,0,0,1-.27.33,1.11,1.11,0,0,1-.38.22,1.07,1.07,0,0,1-.43,0,1,1,0,0,1-.4-.11,1.06,1.06,0,0,1-.33-.26.91.91,0,0,1-.21-.37,1,1,0,0,1-.05-.44,1.13,1.13,0,0,1,.11-.41,1.35,1.35,0,0,1,.26-.33,1.28,1.28,0,0,1,.38-.21A1.09,1.09,0,0,1,246,43a1.11,1.11,0,0,1,.74.38A1.11,1.11,0,0,1,247,43.77Zm.41,2.07,2.19,6.84-1.65.53-2.19-6.84Z" transform="translate(-89 -14)"/><path class="cls-2" d="M253.54,51.59a1.82,1.82,0,0,1-1.52-.1,2,2,0,0,1-.9-1.26L250,46.39l-.71.21a.36.36,0,0,1-.25,0,.32.32,0,0,1-.17-.23l-.2-.66,1.06-.51-.21-2a.38.38,0,0,1,.07-.24.4.4,0,0,1,.22-.15l.86-.25.64,2.17,1.84-.55.35,1.19-1.84.54,1.1,3.73a.75.75,0,0,0,.3.46.56.56,0,0,0,.49,0,1,1,0,0,0,.25-.11l.16-.13.11-.12a.19.19,0,0,1,.11-.07.15.15,0,0,1,.13,0,.41.41,0,0,1,.14.08l.73.66a2.59,2.59,0,0,1-.7.7A3.06,3.06,0,0,1,253.54,51.59Z" transform="translate(-89 -14)"/><path class="cls-2" d="M260.33,42.22l1.79,7-1,.26a.41.41,0,0,1-.5-.2l-.26-.52a3.87,3.87,0,0,1-.76.94,2.66,2.66,0,0,1-1.15.58,2.56,2.56,0,0,1-1.05.07,2.22,2.22,0,0,1-.88-.36,2.45,2.45,0,0,1-.67-.72,3.83,3.83,0,0,1-.42-1l-1.14-4.42,1.67-.43,1.14,4.42a1.53,1.53,0,0,0,.55.91,1.13,1.13,0,0,0,1,.12,1.83,1.83,0,0,0,.77-.4,3,3,0,0,0,.58-.72l-1.3-5Z" transform="translate(-89 -14)"/><path class="cls-2" d="M262.22,42.81a4.22,4.22,0,0,1,2.68-1.74A3,3,0,0,1,266,41a2.44,2.44,0,0,1,1.64,1.13,3.55,3.55,0,0,1,.41,1.06l1,4.44-.77.16a.71.71,0,0,1-.38,0,.49.49,0,0,1-.27-.25l-.26-.47c-.15.2-.29.37-.43.53a3,3,0,0,1-.46.42,2.69,2.69,0,0,1-.55.31,3.76,3.76,0,0,1-.67.22,3.13,3.13,0,0,1-.85.06,1.94,1.94,0,0,1-.73-.22,1.66,1.66,0,0,1-.55-.51,2.19,2.19,0,0,1-.33-.79,1.45,1.45,0,0,1,0-.55A1.57,1.57,0,0,1,263,46a2.56,2.56,0,0,1,.42-.56,3.77,3.77,0,0,1,.71-.54,7.25,7.25,0,0,1,1-.49,10.67,10.67,0,0,1,1.4-.43l-.09-.41a1.56,1.56,0,0,0-.53-1,1.14,1.14,0,0,0-.94-.15,2.29,2.29,0,0,0-.66.24,3,3,0,0,0-.43.32l-.32.3a.86.86,0,0,1-.36.17.44.44,0,0,1-.32,0,.81.81,0,0,1-.24-.17Zm4.53,2.2a8.82,8.82,0,0,0-1.2.4,3.19,3.19,0,0,0-.75.41,1.12,1.12,0,0,0-.36.42.78.78,0,0,0,0,.45.74.74,0,0,0,.4.58,1.18,1.18,0,0,0,.73,0,2.05,2.05,0,0,0,.86-.38,2.87,2.87,0,0,0,.62-.73Z" transform="translate(-89 -14)"/><path class="cls-2" d="M277.59,46.13l-1.7.3-1-5.8-3.29.56.66,3.84a.8.8,0,0,0,.26.49.58.58,0,0,0,.47.11.79.79,0,0,0,.26-.09.56.56,0,0,0,.17-.11l.13-.1a.34.34,0,0,1,.12-.06.19.19,0,0,1,.13,0,.31.31,0,0,1,.12.09l.66.74a2.77,2.77,0,0,1-.78.62,3.27,3.27,0,0,1-1,.33,1.92,1.92,0,0,1-1.51-.28,2,2,0,0,1-.74-1.35l-.68-3.95-.73.12a.32.32,0,0,1-.25,0,.36.36,0,0,1-.14-.25l-.11-.68,1.1-.39,0-2a.32.32,0,0,1,.09-.24.42.42,0,0,1,.24-.12l.88-.15.38,2.23,5-.86Zm-1.28-9.21a1,1,0,0,1,0,.43,1.21,1.21,0,0,1-.18.38,1.23,1.23,0,0,1-.31.29,1.08,1.08,0,0,1-.42.16,1,1,0,0,1-.43,0,1.63,1.63,0,0,1-.38-.17,1.23,1.23,0,0,1-.29-.31,1.14,1.14,0,0,1-.14-.84,1,1,0,0,1,.17-.38,1.07,1.07,0,0,1,.3-.3,1.14,1.14,0,0,1,.84-.14,1.1,1.1,0,0,1,.4.17,1.23,1.23,0,0,1,.29.31A.94.94,0,0,1,276.31,36.92Z" transform="translate(-89 -14)"/><path class="cls-2" d="M281.47,38.26a4,4,0,0,1,1.47.08,3,3,0,0,1,1.21.59A3.09,3.09,0,0,1,285,40a4.26,4.26,0,0,1,.45,1.49,4.47,4.47,0,0,1-.06,1.56,3.47,3.47,0,0,1-.56,1.25,3.19,3.19,0,0,1-1,.87,3.71,3.71,0,0,1-1.41.44,3.81,3.81,0,0,1-1.48-.07,3.19,3.19,0,0,1-2.07-1.66,4.74,4.74,0,0,1-.39-3,3.26,3.26,0,0,1,.57-1.25,3.32,3.32,0,0,1,1-.87A4.15,4.15,0,0,1,281.47,38.26Zm.76,6a1.5,1.5,0,0,0,1.24-.76,3,3,0,0,0,.21-1.81A3.14,3.14,0,0,0,283,40a1.76,1.76,0,0,0-2.65.34,3,3,0,0,0-.21,1.81,2.93,2.93,0,0,0,.65,1.69A1.52,1.52,0,0,0,282.23,44.28Z" transform="translate(-89 -14)"/><path class="cls-2" d="M288.18,38.52c.14-.15.28-.3.43-.44a3.27,3.27,0,0,1,.48-.35,2.61,2.61,0,0,1,.56-.26,4.06,4.06,0,0,1,.66-.13,2.6,2.6,0,0,1,1.06.12,2,2,0,0,1,.8.49,2.47,2.47,0,0,1,.53.82,3.29,3.29,0,0,1,.25,1.08l.39,4.56-1.72.15L291.23,40a1.5,1.5,0,0,0-.39-1,1.1,1.1,0,0,0-.94-.28,1.7,1.7,0,0,0-.82.27,3,3,0,0,0-.69.61l.44,5.18-1.73.15-.6-7.16,1.05-.09A.42.42,0,0,1,288,38Z" transform="translate(-89 -14)"/><path class="cls-2" d="M294.42,38.15a4.28,4.28,0,0,1,2.93-1.26,3,3,0,0,1,1.14.15,2.25,2.25,0,0,1,.86.54,2.54,2.54,0,0,1,.57.85,3.59,3.59,0,0,1,.22,1.11l.21,4.53-.79,0a.71.71,0,0,1-.38-.06.5.5,0,0,1-.22-.29l-.18-.51a5.29,5.29,0,0,1-.51.46,3.24,3.24,0,0,1-.52.33,3,3,0,0,1-.59.22,3,3,0,0,1-.7.1,2.89,2.89,0,0,1-.85-.08,1.89,1.89,0,0,1-.68-.34,1.68,1.68,0,0,1-.46-.59,2.16,2.16,0,0,1-.19-.84,1.49,1.49,0,0,1,.34-1.07,2.67,2.67,0,0,1,.51-.49,3.88,3.88,0,0,1,.79-.41,6.76,6.76,0,0,1,1.11-.31,10.7,10.7,0,0,1,1.45-.19l0-.42a1.53,1.53,0,0,0-.36-1,1.09,1.09,0,0,0-.9-.31,1.88,1.88,0,0,0-.69.13,2.69,2.69,0,0,0-.48.24l-.37.24a.7.7,0,0,1-.38.11.47.47,0,0,1-.31-.08.7.7,0,0,1-.21-.21Zm4.1,2.94a8.67,8.67,0,0,0-1.25.18,3.28,3.28,0,0,0-.81.28,1.1,1.1,0,0,0-.42.36.86.86,0,0,0-.12.44.77.77,0,0,0,.3.63,1.16,1.16,0,0,0,.71.17,2.07,2.07,0,0,0,.91-.24,2.73,2.73,0,0,0,.74-.61Z" transform="translate(-89 -14)"/><path class="cls-2" d="M303.49,33.62l.18,10.4-1.73,0-.18-10.4Z" transform="translate(-89 -14)"/><path class="cls-2" d="M318.78,39.3a5.69,5.69,0,0,1-.45,2.05,4.86,4.86,0,0,1-1.1,1.6,4.75,4.75,0,0,1-1.66,1,5.35,5.35,0,0,1-2.11.31,5.52,5.52,0,0,1-2.08-.47,4.8,4.8,0,0,1-1.57-1.15,4.88,4.88,0,0,1-1-1.68,6,6,0,0,1,.17-4.12,4.75,4.75,0,0,1,2.77-2.62,5.89,5.89,0,0,1,3.55-.06,5,5,0,0,1,1.22.55,4.64,4.64,0,0,1,1,.83,4.57,4.57,0,0,1,.72,1.07,4.81,4.81,0,0,1,.43,1.26A5.53,5.53,0,0,1,318.78,39.3Zm-1.92-.07a4.52,4.52,0,0,0-.17-1.51,3,3,0,0,0-.59-1.14,2.76,2.76,0,0,0-1-.75,3.47,3.47,0,0,0-1.33-.3,3.6,3.6,0,0,0-1.34.19,2.74,2.74,0,0,0-1,.67,3.22,3.22,0,0,0-.69,1.1,5.16,5.16,0,0,0-.12,3,3.08,3.08,0,0,0,.6,1.15,2.77,2.77,0,0,0,1,.74,3.46,3.46,0,0,0,1.32.3,3.6,3.6,0,0,0,1.34-.19,2.78,2.78,0,0,0,1-.67,3.21,3.21,0,0,0,.68-1.09A4.81,4.81,0,0,0,316.86,39.23Z" transform="translate(-89 -14)"/><path class="cls-2" d="M326.91,37.92l-3.48,6.9-1.56-.14-2.2-7.41,1.42.13a.54.54,0,0,1,.32.12.45.45,0,0,1,.15.24l1,4c.06.23.1.45.14.67l.09.65c.06-.21.13-.41.21-.62a5.73,5.73,0,0,1,.26-.64l1.74-3.7a.51.51,0,0,1,.2-.21.53.53,0,0,1,.31-.07Z" transform="translate(-89 -14)"/><path class="cls-2" d="M328.63,42a3.28,3.28,0,0,0,.07,1,2,2,0,0,0,.32.71,1.66,1.66,0,0,0,.55.47,2.07,2.07,0,0,0,.74.22,2.22,2.22,0,0,0,.73,0,3.33,3.33,0,0,0,.55-.15L332,44a.69.69,0,0,1,.34-.05.36.36,0,0,1,.3.2l.41.69a3.06,3.06,0,0,1-.71.48,3.57,3.57,0,0,1-.78.26,3.72,3.72,0,0,1-.81.09,5,5,0,0,1-.78,0,3.68,3.68,0,0,1-1.35-.42,3.07,3.07,0,0,1-1-.87,3.33,3.33,0,0,1-.59-1.29,4.69,4.69,0,0,1-.06-1.69,4,4,0,0,1,.41-1.34,3.2,3.2,0,0,1,.82-1,3.11,3.11,0,0,1,1.17-.61,3.4,3.4,0,0,1,1.47-.1,3.57,3.57,0,0,1,1.21.37,2.68,2.68,0,0,1,.9.76,3,3,0,0,1,.52,1.09,3.8,3.8,0,0,1,0,1.4,1.11,1.11,0,0,1-.15.52.34.34,0,0,1-.33.09Zm3.4-.62a2.28,2.28,0,0,0,0-.64,1.48,1.48,0,0,0-.22-.55,1.3,1.3,0,0,0-.43-.41,1.78,1.78,0,0,0-.65-.22,1.61,1.61,0,0,0-1.23.28,2.1,2.1,0,0,0-.7,1.13Z" transform="translate(-89 -14)"/><path class="cls-2" d="M336.76,40.53a3.08,3.08,0,0,1,.95-.87,1.64,1.64,0,0,1,1.14-.19,1.31,1.31,0,0,1,.75.34l-.32,1.26a.35.35,0,0,1-.12.16.3.3,0,0,1-.19,0l-.3-.08a1.86,1.86,0,0,0-.39-.1,1.51,1.51,0,0,0-.52,0,1.21,1.21,0,0,0-.44.18,1.8,1.8,0,0,0-.37.32,4.78,4.78,0,0,0-.33.47l-.71,4.36-1.7-.27L335.35,39l1,.16a.57.57,0,0,1,.35.15.56.56,0,0,1,.09.36Z" transform="translate(-89 -14)"/><path class="cls-2" d="M342,41.44a3.14,3.14,0,0,1,1-.84,1.71,1.71,0,0,1,1.14-.16,1.33,1.33,0,0,1,.74.36l-.35,1.26a.33.33,0,0,1-.13.15.29.29,0,0,1-.19,0,1.51,1.51,0,0,1-.3-.09,1.9,1.9,0,0,0-.39-.11,1.26,1.26,0,0,0-.51,0,1.11,1.11,0,0,0-.44.16,1.4,1.4,0,0,0-.38.31,3.46,3.46,0,0,0-.35.46L341,47.29,339.3,47l1.34-7,1,.19a.52.52,0,0,1,.35.16.51.51,0,0,1,.07.36Z" transform="translate(-89 -14)"/><path class="cls-2" d="M347.62,41.32l-1.5,7-1.7-.36,1.51-7Zm.68-2a1,1,0,0,1-.18.39,1.22,1.22,0,0,1-.31.29,1.32,1.32,0,0,1-.39.15,1.14,1.14,0,0,1-.45,0,1.15,1.15,0,0,1-.39-.18.92.92,0,0,1-.29-.3,1.06,1.06,0,0,1-.16-.38,1,1,0,0,1,0-.43,1.17,1.17,0,0,1,.18-.41,1,1,0,0,1,.3-.29A1.11,1.11,0,0,1,347,38a1,1,0,0,1,.43,0,1.12,1.12,0,0,1,.7.48,1.1,1.1,0,0,1,.17.4A1.09,1.09,0,0,1,348.3,39.32Z" transform="translate(-89 -14)"/><path class="cls-2" d="M356.31,40.07l-2.49,10.1-1-.25a.41.41,0,0,1-.35-.41l0-.71a3.44,3.44,0,0,1-1.16.55,2.69,2.69,0,0,1-1.35,0,2.33,2.33,0,0,1-1-.49,2.42,2.42,0,0,1-.65-.89,3.43,3.43,0,0,1-.26-1.25,6,6,0,0,1,.19-1.57,4.94,4.94,0,0,1,.56-1.39,3.65,3.65,0,0,1,.89-1,2.9,2.9,0,0,1,1.14-.53,2.87,2.87,0,0,1,1.3,0,2.37,2.37,0,0,1,1.57,1.11l.91-3.68Zm-2.89,4.5a1.76,1.76,0,0,0-.5-.65,2,2,0,0,0-.69-.32,1.6,1.6,0,0,0-.72,0,1.32,1.32,0,0,0-.63.3,2.3,2.3,0,0,0-.51.65,4.45,4.45,0,0,0-.38,1,4.63,4.63,0,0,0-.15,1.07,1.94,1.94,0,0,0,.11.76,1.13,1.13,0,0,0,.35.5,1.52,1.52,0,0,0,.56.26,1.7,1.7,0,0,0,.95,0,2.47,2.47,0,0,0,.84-.45Z" transform="translate(-89 -14)"/><path class="cls-2" d="M357.59,47.72a3.43,3.43,0,0,0-.08,1,2,2,0,0,0,.21.75,1.7,1.7,0,0,0,.46.54,2.17,2.17,0,0,0,.7.34,2.54,2.54,0,0,0,.73.11,3.17,3.17,0,0,0,.57-.07l.44-.09a.69.69,0,0,1,.35,0,.34.34,0,0,1,.26.24l.3.74a2.6,2.6,0,0,1-.77.37,4.54,4.54,0,0,1-.82.14,4.4,4.4,0,0,1-.81,0,5.82,5.82,0,0,1-.77-.16,3.87,3.87,0,0,1-1.27-.63,3.28,3.28,0,0,1-.87-1,3.47,3.47,0,0,1-.38-1.36,4.57,4.57,0,0,1,.2-1.67,3.88,3.88,0,0,1,.61-1.26,3.44,3.44,0,0,1,1-.9,3.29,3.29,0,0,1,1.26-.42,3.53,3.53,0,0,1,1.46.13,3.2,3.2,0,0,1,1.14.56,2.73,2.73,0,0,1,.78.88,2.9,2.9,0,0,1,.33,1.16,3.62,3.62,0,0,1-.16,1.39,1.06,1.06,0,0,1-.22.49.37.37,0,0,1-.35,0Zm3.46-.08a2,2,0,0,0,.08-.64,1.44,1.44,0,0,0-.13-.58,1.21,1.21,0,0,0-.36-.47,1.53,1.53,0,0,0-.61-.31,1.61,1.61,0,0,0-1.25.08,2.1,2.1,0,0,0-.87,1Z" transform="translate(-89 -14)"/><path class="cls-2" d="M368.44,48.57a.47.47,0,0,1-.19.11.5.5,0,0,1-.2,0,.75.75,0,0,1-.23-.15l-.27-.26a2.82,2.82,0,0,0-.36-.28,1.93,1.93,0,0,0-.52-.24,1.28,1.28,0,0,0-.83,0,.7.7,0,0,0-.45.45.53.53,0,0,0,0,.41,1.46,1.46,0,0,0,.3.39,3.72,3.72,0,0,0,.46.38l.55.4c.18.14.36.28.53.44a2.28,2.28,0,0,1,.42.52,1.62,1.62,0,0,1,.12,1.38,2.59,2.59,0,0,1-.47.85,2.18,2.18,0,0,1-.76.55,2.71,2.71,0,0,1-1,.19,3.81,3.81,0,0,1-1.23-.22,3.66,3.66,0,0,1-.67-.29,6,6,0,0,1-.59-.39,3.45,3.45,0,0,1-.48-.45,2.61,2.61,0,0,1-.35-.49l.58-.5a.49.49,0,0,1,.23-.11.51.51,0,0,1,.27,0,.54.54,0,0,1,.27.18,3,3,0,0,0,.25.29,2.94,2.94,0,0,0,.36.33,2.16,2.16,0,0,0,.59.29,1.78,1.78,0,0,0,.52.09,1,1,0,0,0,.41-.07.7.7,0,0,0,.28-.19,1,1,0,0,0,.17-.29.6.6,0,0,0,0-.44,1.2,1.2,0,0,0-.3-.39,3.11,3.11,0,0,0-.47-.38l-.55-.4a4.69,4.69,0,0,1-.54-.46,2.18,2.18,0,0,1-.42-.54,1.76,1.76,0,0,1-.2-.66,2.07,2.07,0,0,1,.11-.82,2.12,2.12,0,0,1,.43-.74,2,2,0,0,1,.71-.5,2.51,2.51,0,0,1,.95-.19,3.43,3.43,0,0,1,1.17.2,3.6,3.6,0,0,1,1.21.65,3.24,3.24,0,0,1,.76.93Z" transform="translate(-89 -14)"/><path class="cls-2" d="M259.36,85.66a5.68,5.68,0,0,1,1.75-.31,3.32,3.32,0,0,1,1.37.26,2.61,2.61,0,0,1,1,.75,3.45,3.45,0,0,1,.62,1.17,3.62,3.62,0,0,1,.18,1.36,2.77,2.77,0,0,1-.38,1.22,3.32,3.32,0,0,1-1,1,5.34,5.34,0,0,1-1.57.76l-1.34.43,1.09,3.4-1.79.57-3.09-9.64Zm1.56,4.84a2.45,2.45,0,0,0,.81-.4,1.69,1.69,0,0,0,.5-.54,1.61,1.61,0,0,0,.19-.68,2.18,2.18,0,0,0-.12-.78,2.29,2.29,0,0,0-.34-.66,1.58,1.58,0,0,0-.54-.42,1.73,1.73,0,0,0-.71-.14,3.3,3.3,0,0,0-.91.16l-1.34.43,1.12,3.46Z" transform="translate(-89 -14)"/><path class="cls-2" d="M267.15,87.72a3.1,3.1,0,0,1,.5-1.18,1.73,1.73,0,0,1,1-.64,1.3,1.3,0,0,1,.83,0l.23,1.28a.37.37,0,0,1-.05.2.29.29,0,0,1-.16.1,1.68,1.68,0,0,1-.31,0,2.57,2.57,0,0,0-.4.08,1.46,1.46,0,0,0-.47.21,1.33,1.33,0,0,0-.33.34,1.54,1.54,0,0,0-.2.45,3.91,3.91,0,0,0-.12.56l1.16,4.27-1.67.45-1.87-6.94,1-.26a.49.49,0,0,1,.38,0,.5.5,0,0,1,.22.29Z" transform="translate(-89 -14)"/><path class="cls-2" d="M273.38,84.79a3.69,3.69,0,0,1,1.47-.06,3.14,3.14,0,0,1,1.26.47,3.18,3.18,0,0,1,.95,1,4.44,4.44,0,0,1,.58,1.44,4.66,4.66,0,0,1,.09,1.56,3.41,3.41,0,0,1-.45,1.29,3,3,0,0,1-.93,1A3.88,3.88,0,0,1,275,92a4,4,0,0,1-1.49.07,3.32,3.32,0,0,1-1.25-.48,3.25,3.25,0,0,1-1-1,4.41,4.41,0,0,1-.59-1.45,4.33,4.33,0,0,1-.08-1.55,3.41,3.41,0,0,1,.45-1.29,3.18,3.18,0,0,1,.94-1A3.93,3.93,0,0,1,273.38,84.79Zm1.32,5.92a1.52,1.52,0,0,0,1.16-.87,3,3,0,0,0,0-1.82,3.07,3.07,0,0,0-.8-1.63,1.51,1.51,0,0,0-1.43-.31,1.53,1.53,0,0,0-1.18.89,3.74,3.74,0,0,0,.76,3.44A1.56,1.56,0,0,0,274.7,90.71Z" transform="translate(-89 -14)"/><path class="cls-2" d="M284.06,79.64l1.7,10.26-1.05.18a.43.43,0,0,1-.48-.24l-.26-.66a3.52,3.52,0,0,1-.85.95,2.58,2.58,0,0,1-1.24.52,2.27,2.27,0,0,1-2.05-.63,3.16,3.16,0,0,1-.73-1,6.06,6.06,0,0,1-.45-1.52,5.41,5.41,0,0,1,0-1.5,3.47,3.47,0,0,1,.43-1.27,2.89,2.89,0,0,1,.83-.94,2.79,2.79,0,0,1,1.21-.49,2.56,2.56,0,0,1,1,0,2.9,2.9,0,0,1,.84.38l-.62-3.74Zm-.88,5.27a1.77,1.77,0,0,0-.72-.39,1.92,1.92,0,0,0-.76,0,1.8,1.8,0,0,0-.67.26,1.58,1.58,0,0,0-.46.53,2.09,2.09,0,0,0-.21.8,4.62,4.62,0,0,0,.05,1.09,5.32,5.32,0,0,0,.28,1,2.12,2.12,0,0,0,.4.65,1.15,1.15,0,0,0,.52.32,1.43,1.43,0,0,0,.62,0,1.73,1.73,0,0,0,.87-.37,2.49,2.49,0,0,0,.6-.74Z" transform="translate(-89 -14)"/><path class="cls-2" d="M292.7,81.87l.79,7.14-1.05.12a.42.42,0,0,1-.47-.27l-.18-.56a3.87,3.87,0,0,1-.89.83,2.68,2.68,0,0,1-1.21.41,2.62,2.62,0,0,1-1.06-.08,2.12,2.12,0,0,1-.82-.48,2.47,2.47,0,0,1-.55-.81,3.57,3.57,0,0,1-.28-1.08l-.5-4.53,1.72-.19.5,4.53a1.51,1.51,0,0,0,.41,1,1.11,1.11,0,0,0,.95.26,1.76,1.76,0,0,0,.81-.29,2.87,2.87,0,0,0,.68-.63L291,82.06Z" transform="translate(-89 -14)"/><path class="cls-2" d="M299.86,82.93a.86.86,0,0,1-.15.17.34.34,0,0,1-.21.07.54.54,0,0,1-.26-.07l-.31-.16a1.94,1.94,0,0,0-.43-.16,2.13,2.13,0,0,0-.6,0,1.74,1.74,0,0,0-.78.22,1.47,1.47,0,0,0-.55.5,2,2,0,0,0-.29.77,3.88,3.88,0,0,0-.06,1,4.12,4.12,0,0,0,.19,1,2.19,2.19,0,0,0,.39.73,1.52,1.52,0,0,0,.59.43,1.85,1.85,0,0,0,.75.12,1.79,1.79,0,0,0,.66-.15,2,2,0,0,0,.42-.24c.11-.09.21-.17.29-.25a.43.43,0,0,1,.28-.11.34.34,0,0,1,.33.14l.53.6a3.36,3.36,0,0,1-.59.6,3.3,3.3,0,0,1-.67.4,3.9,3.9,0,0,1-.73.24,6.42,6.42,0,0,1-.75.1,3.16,3.16,0,0,1-1.27-.18,2.91,2.91,0,0,1-1.07-.66,3.36,3.36,0,0,1-.76-1.12,4.36,4.36,0,0,1-.35-1.55,4.47,4.47,0,0,1,.14-1.48,3.33,3.33,0,0,1,.59-1.21,3.2,3.2,0,0,1,1.05-.83,3.54,3.54,0,0,1,4,.48Z" transform="translate(-89 -14)"/><path class="cls-2" d="M304.09,88.61a1.88,1.88,0,0,1-1.45-.5,2,2,0,0,1-.53-1.45l-.07-4-.74,0a.36.36,0,0,1-.24-.09.37.37,0,0,1-.1-.27v-.69l1.15-.21.33-2a.33.33,0,0,1,.13-.21.4.4,0,0,1,.25-.09h.89l.05,2.26,1.91,0,0,1.23-1.92,0,.07,3.89A.74.74,0,0,0,304,87a.55.55,0,0,0,.46.18.7.7,0,0,0,.27,0l.19-.08.14-.09a.28.28,0,0,1,.12,0,.18.18,0,0,1,.13,0,.56.56,0,0,1,.11.11l.53.83a2.53,2.53,0,0,1-.86.49A2.87,2.87,0,0,1,304.09,88.61Z" transform="translate(-89 -14)"/><path class="cls-2" d="M317.47,80.29l-3.05-.15L314,88.71l-1.89-.1.42-8.56-3.05-.15.08-1.54,8,.38Z" transform="translate(-89 -14)"/><path class="cls-2" d="M320.23,82.74a4,4,0,0,1,1-.54,2.89,2.89,0,0,1,1.2-.12,2.66,2.66,0,0,1,1,.31,2,2,0,0,1,.7.63,2.64,2.64,0,0,1,.37.91,3.68,3.68,0,0,1,0,1.11l-.48,4.55-1.71-.18.47-4.55a1.54,1.54,0,0,0-.2-1,1.1,1.1,0,0,0-.87-.45,1.68,1.68,0,0,0-.86.11,3.11,3.11,0,0,0-.79.47l-.54,5.17-1.72-.18,1.08-10.35,1.72.18Z" transform="translate(-89 -14)"/><path class="cls-2" d="M327.41,86.67a3,3,0,0,0,0,1,1.79,1.79,0,0,0,.29.72,1.62,1.62,0,0,0,.53.48,2.16,2.16,0,0,0,.74.25,2.6,2.6,0,0,0,.73,0,3.52,3.52,0,0,0,.56-.14l.43-.15a.68.68,0,0,1,.34,0,.34.34,0,0,1,.29.21l.4.7a2.94,2.94,0,0,1-.73.45,3.81,3.81,0,0,1-.79.25,4.42,4.42,0,0,1-.81.06,6.49,6.49,0,0,1-.78-.06,4,4,0,0,1-1.34-.47,3.05,3.05,0,0,1-1-.9,3.39,3.39,0,0,1-.55-1.3,4.55,4.55,0,0,1,0-1.69,3.74,3.74,0,0,1,.45-1.33,3.17,3.17,0,0,1,.85-1,3.08,3.08,0,0,1,1.19-.58,3.59,3.59,0,0,1,1.47-.06,3.48,3.48,0,0,1,1.2.41,2.89,2.89,0,0,1,.88.78,2.93,2.93,0,0,1,.48,1.11,3.7,3.7,0,0,1,0,1.41,1.16,1.16,0,0,1-.16.51.34.34,0,0,1-.34.08Zm3.42-.52a2,2,0,0,0,0-.64,1.49,1.49,0,0,0-.19-.56,1.21,1.21,0,0,0-.42-.42,1.81,1.81,0,0,0-1.88,0,2.11,2.11,0,0,0-.73,1.11Z" transform="translate(-89 -14)"/><path class="cls-2" d="M332.82,90.92l1.59-7,1,.24a.43.43,0,0,1,.36.4v.55a3.31,3.31,0,0,1,.47-.29,2.18,2.18,0,0,1,.5-.2,2.34,2.34,0,0,1,.53-.08,2,2,0,0,1,.59.06,1.67,1.67,0,0,1,1,.6,2.23,2.23,0,0,1,.42,1.1,2.33,2.33,0,0,1,.55-.5,2.24,2.24,0,0,1,.63-.29,2.59,2.59,0,0,1,.68-.09,3.08,3.08,0,0,1,.68.08,2.62,2.62,0,0,1,1,.41,2,2,0,0,1,.64.69,2.35,2.35,0,0,1,.28.94,3.67,3.67,0,0,1-.1,1.16l-1,4.46L341,92.77l1-4.46a1.53,1.53,0,0,0-.07-1.08,1.12,1.12,0,0,0-.78-.53,1.41,1.41,0,0,0-.5,0,1.23,1.23,0,0,0-.45.17,1.37,1.37,0,0,0-.36.36,1.68,1.68,0,0,0-.22.56l-1,4.46-1.7-.39,1-4.46a1.52,1.52,0,0,0,0-1.08,1.05,1.05,0,0,0-.75-.51,1.39,1.39,0,0,0-.73,0,2.33,2.33,0,0,0-.7.36L334.5,91.3Z" transform="translate(-89 -14)"/><path class="cls-2" d="M346.3,90.74a3.4,3.4,0,0,0-.09,1,2.06,2.06,0,0,0,.2.75,1.66,1.66,0,0,0,.47.55,2,2,0,0,0,.69.34,2.57,2.57,0,0,0,.72.12,4.51,4.51,0,0,0,.58-.06l.44-.1a.69.69,0,0,1,.35,0,.35.35,0,0,1,.26.24l.3.75a2.71,2.71,0,0,1-.78.35,3.36,3.36,0,0,1-.82.14,4.4,4.4,0,0,1-.81,0,6.17,6.17,0,0,1-.77-.17,3.75,3.75,0,0,1-1.26-.64,3.13,3.13,0,0,1-.86-1,3.36,3.36,0,0,1-.38-1.37,4.59,4.59,0,0,1,.21-1.67,3.92,3.92,0,0,1,.63-1.26,3.2,3.2,0,0,1,2.23-1.3,3.54,3.54,0,0,1,1.46.14,3.39,3.39,0,0,1,1.14.57,2.73,2.73,0,0,1,.77.89,3.07,3.07,0,0,1,.33,1.16,3.92,3.92,0,0,1-.17,1.4,1.17,1.17,0,0,1-.23.48.37.37,0,0,1-.35,0Zm3.46-.06a2.41,2.41,0,0,0,.09-.64,1.63,1.63,0,0,0-.13-.58,1.29,1.29,0,0,0-.35-.47,1.73,1.73,0,0,0-.62-.32,1.62,1.62,0,0,0-1.25.07,2.2,2.2,0,0,0-.87,1Z" transform="translate(-89 -14)"/><path class="cls-2" d="M264.09,140.49a2.47,2.47,0,0,0,.8-.58,2,2,0,0,0,.45-.77,2.27,2.27,0,0,0,.07-.91,3,3,0,0,0-.3-1l-2.54-5.5,1.71-.79,2.54,5.5a4.56,4.56,0,0,1,.44,1.64,3.83,3.83,0,0,1-.2,1.55,3.79,3.79,0,0,1-.83,1.34,4.7,4.7,0,0,1-1.46,1,4.78,4.78,0,0,1-1.73.45,3.7,3.7,0,0,1-1.56-.23,3.79,3.79,0,0,1-1.31-.85,4.65,4.65,0,0,1-1-1.39l-2.55-5.5,1.71-.8,2.54,5.5a3.45,3.45,0,0,0,.59.89,2.14,2.14,0,0,0,.75.53,2,2,0,0,0,.87.16A2.6,2.6,0,0,0,264.09,140.49Z" transform="translate(-89 -14)"/><path class="cls-2" d="M272.13,138.79l-1.77.67L266.79,130l1.76-.66Z" transform="translate(-89 -14)"/><path class="cls-2" d="M272.32,133.46l3.45-1.12.44,1.37-3.44,1.12Z" transform="translate(-89 -14)"/><path class="cls-2" d="M285.14,132.52a.36.36,0,0,1,.3,0l.91.6a4,4,0,0,1-1.19,1.5,5.14,5.14,0,0,1-2,.91,5.21,5.21,0,0,1-2.06.12,4.65,4.65,0,0,1-1.75-.67,4.83,4.83,0,0,1-1.34-1.36,6.18,6.18,0,0,1-.83-1.94,5.66,5.66,0,0,1-.14-2.11,4.71,4.71,0,0,1,.6-1.83,4.55,4.55,0,0,1,1.28-1.42,5.27,5.27,0,0,1,1.87-.86,5.12,5.12,0,0,1,2-.12,4.57,4.57,0,0,1,1.64.58l-.4,1a.81.81,0,0,1-.1.18.42.42,0,0,1-.22.11.45.45,0,0,1-.23,0l-.27-.09-.35-.11a2.43,2.43,0,0,0-.44-.09,3.28,3.28,0,0,0-.55,0,4,4,0,0,0-.7.11,3.29,3.29,0,0,0-1.15.53,2.75,2.75,0,0,0-.77.92,3.2,3.2,0,0,0-.34,1.23,4.82,4.82,0,0,0,.14,1.52,4.61,4.61,0,0,0,.6,1.42,3.37,3.37,0,0,0,.91.93,2.81,2.81,0,0,0,1.11.44,3,3,0,0,0,1.22-.05,6,6,0,0,0,.67-.21,3.28,3.28,0,0,0,.53-.27,2.79,2.79,0,0,0,.42-.35,3.42,3.42,0,0,0,.37-.45.37.37,0,0,1,.12-.13A.29.29,0,0,1,285.14,132.52Z" transform="translate(-89 -14)"/><path class="cls-2" d="M289.37,126.81a3.81,3.81,0,0,1,1.47,0,3.31,3.31,0,0,1,1.22.55,3.26,3.26,0,0,1,.9,1,4.76,4.76,0,0,1,.48,3,3.34,3.34,0,0,1-.52,1.27,3.2,3.2,0,0,1-1,.91,4.33,4.33,0,0,1-2.88.46,3.14,3.14,0,0,1-1.23-.56,3.26,3.26,0,0,1-.9-1,4.37,4.37,0,0,1-.49-1.48,4.23,4.23,0,0,1,0-1.55,3.24,3.24,0,0,1,.53-1.26,3.09,3.09,0,0,1,1-.91A3.92,3.92,0,0,1,289.37,126.81Zm.95,6a1.52,1.52,0,0,0,1.22-.8,3.81,3.81,0,0,0-.56-3.49,1.52,1.52,0,0,0-1.41-.4,1.54,1.54,0,0,0-1.23.82,3.08,3.08,0,0,0-.15,1.82,2.94,2.94,0,0,0,.71,1.67A1.53,1.53,0,0,0,290.32,132.8Z" transform="translate(-89 -14)"/><path class="cls-2" d="M296.24,127.3a3.42,3.42,0,0,1,.7-1.08,1.69,1.69,0,0,1,1.06-.46,1.29,1.29,0,0,1,.81.14v1.3a.42.42,0,0,1-.08.19.3.3,0,0,1-.18.06h-.31a2.67,2.67,0,0,0-.4,0,1.59,1.59,0,0,0-.51.13,1.25,1.25,0,0,0-.37.28,1.56,1.56,0,0,0-.28.41,3.25,3.25,0,0,0-.21.53l.41,4.41-1.72.16-.67-7.16,1-.09a.5.5,0,0,1,.37.06.52.52,0,0,1,.17.33Z" transform="translate(-89 -14)"/><path class="cls-2" d="M301.25,129.51a3.42,3.42,0,0,0,.22.94,2,2,0,0,0,.43.66,1.59,1.59,0,0,0,.61.37,2.12,2.12,0,0,0,.77.1,2.17,2.17,0,0,0,.72-.12,3.82,3.82,0,0,0,.53-.23l.39-.23a.62.62,0,0,1,.33-.11.4.4,0,0,1,.33.15l.51.62a3.1,3.1,0,0,1-.62.58,3.75,3.75,0,0,1-.74.39,3.6,3.6,0,0,1-.78.21,5.49,5.49,0,0,1-.78.09,4,4,0,0,1-1.4-.21,3.06,3.06,0,0,1-1.14-.7,3.35,3.35,0,0,1-.79-1.18,4.57,4.57,0,0,1-.33-1.65,4,4,0,0,1,.2-1.39,3.41,3.41,0,0,1,.64-1.15,3.24,3.24,0,0,1,1.06-.79,3.63,3.63,0,0,1,1.44-.33,3.7,3.7,0,0,1,1.26.18,2.72,2.72,0,0,1,1,.6,3,3,0,0,1,.67,1,3.68,3.68,0,0,1,.28,1.38,1.18,1.18,0,0,1-.06.53.35.35,0,0,1-.32.14Zm3.26-1.15a2.07,2.07,0,0,0-.12-.63,1.44,1.44,0,0,0-.3-.51,1.23,1.23,0,0,0-.49-.34,1.59,1.59,0,0,0-.68-.11,1.62,1.62,0,0,0-1.16.46,2.1,2.1,0,0,0-.51,1.23Z" transform="translate(-89 -14)"/><path class="cls-2" d="M318.18,124.81l-3-.23-.65,8.55-1.88-.14.65-8.55-3-.23.11-1.54,8,.6Z" transform="translate(-89 -14)"/><path class="cls-2" d="M321,127.42a3.77,3.77,0,0,1,1-.49,2.9,2.9,0,0,1,2.21.3,2,2,0,0,1,.66.67,2.51,2.51,0,0,1,.33.93,3.79,3.79,0,0,1,0,1.11l-.71,4.52-1.7-.27.7-4.52a1.54,1.54,0,0,0-.14-1,1.1,1.1,0,0,0-.85-.5,1.79,1.79,0,0,0-.86.07,3.08,3.08,0,0,0-.82.43l-.8,5.13-1.71-.26,1.61-10.28,1.71.27Z" transform="translate(-89 -14)"/><path class="cls-2" d="M328,131.77a3.23,3.23,0,0,0,0,1,1.85,1.85,0,0,0,.24.74,1.62,1.62,0,0,0,.49.52,2.54,2.54,0,0,0,1.45.37,2.26,2.26,0,0,0,.56-.09l.44-.11a.61.61,0,0,1,.35,0,.34.34,0,0,1,.27.23l.34.72a2.73,2.73,0,0,1-.75.4,3.4,3.4,0,0,1-.81.19,3.75,3.75,0,0,1-.82,0,4.76,4.76,0,0,1-.77-.12,4,4,0,0,1-1.3-.56,3.19,3.19,0,0,1-.92-1,3.48,3.48,0,0,1-.45-1.34,4.48,4.48,0,0,1,.12-1.68,3.92,3.92,0,0,1,.54-1.29,3.24,3.24,0,0,1,2.16-1.43,3.51,3.51,0,0,1,1.47.06,3.43,3.43,0,0,1,1.17.5,2.7,2.7,0,0,1,.81.84,2.82,2.82,0,0,1,.4,1.14,3.77,3.77,0,0,1-.09,1.4,1.22,1.22,0,0,1-.2.5.39.39,0,0,1-.35.06Zm3.44-.26a2,2,0,0,0,.06-.64,1.51,1.51,0,0,0-.16-.57,1.4,1.4,0,0,0-.38-.46,1.66,1.66,0,0,0-.63-.28,1.64,1.64,0,0,0-1.25.15,2.12,2.12,0,0,0-.81,1Z" transform="translate(-89 -14)"/><path class="cls-2" d="M333,136.38l2.31-6.8,1,.34a.42.42,0,0,1,.32.44l-.07.54a4.38,4.38,0,0,1,.5-.23,2.38,2.38,0,0,1,.52-.15,1.93,1.93,0,0,1,.54,0,2.14,2.14,0,0,1,.58.12,1.67,1.67,0,0,1,.94.7,2.26,2.26,0,0,1,.31,1.14,2.26,2.26,0,0,1,.59-.45,2.47,2.47,0,0,1,1.34-.23,3,3,0,0,1,.67.14,2.88,2.88,0,0,1,.95.52,2,2,0,0,1,.56.75,2.49,2.49,0,0,1,.18,1,3.88,3.88,0,0,1-.22,1.15l-1.47,4.33-1.63-.56,1.47-4.33a1.53,1.53,0,0,0,0-1.07,1.07,1.07,0,0,0-.72-.61,1.45,1.45,0,0,0-.5-.08,1.1,1.1,0,0,0-.46.13,1.06,1.06,0,0,0-.39.32,1.78,1.78,0,0,0-.29.53l-1.47,4.33-1.64-.56,1.47-4.33a1.61,1.61,0,0,0,.06-1.09,1,1,0,0,0-.7-.58,1.36,1.36,0,0,0-.72,0,2.25,2.25,0,0,0-.74.28l-1.69,5Z" transform="translate(-89 -14)"/><path class="cls-2" d="M346.4,137.72a3.39,3.39,0,0,0-.22.95,1.87,1.87,0,0,0,.1.77,1.69,1.69,0,0,0,.38.61,2.17,2.17,0,0,0,.65.43,2.12,2.12,0,0,0,.7.21,3.79,3.79,0,0,0,.57,0l.46,0a.63.63,0,0,1,.34,0,.38.38,0,0,1,.23.28l.19.78a2.77,2.77,0,0,1-.82.25,3.85,3.85,0,0,1-.83,0,5.37,5.37,0,0,1-.8-.15,6.93,6.93,0,0,1-.73-.27,4,4,0,0,1-1.17-.8,3.3,3.3,0,0,1-.72-1.13,3.6,3.6,0,0,1-.19-1.41,4.69,4.69,0,0,1,.44-1.63,4.08,4.08,0,0,1,.78-1.16,3.43,3.43,0,0,1,1.09-.75,3.27,3.27,0,0,1,1.3-.24,3.47,3.47,0,0,1,1.43.34,3.34,3.34,0,0,1,1.06.71,2.82,2.82,0,0,1,.64,1,3.15,3.15,0,0,1,.17,1.2,4.05,4.05,0,0,1-.36,1.36,1.14,1.14,0,0,1-.29.45.36.36,0,0,1-.35,0Zm3.43.4a2,2,0,0,0,.17-.61,1.44,1.44,0,0,0,0-.59,1.28,1.28,0,0,0-.29-.52,1.71,1.71,0,0,0-.56-.4,1.59,1.59,0,0,0-1.25-.09,2.05,2.05,0,0,0-1,.87Z" transform="translate(-89 -14)"/><path class="cls-2" d="M277.33,172.29l5.2,8.69-1.42.85-3.36-5.61c-.13-.22-.27-.47-.4-.75l.33,6.5a.69.69,0,0,1-.36.7l-.23.14a.69.69,0,0,1-.78,0l-5.62-3.36.27.38.22.34,3.36,5.61-1.43.86-5.19-8.69,1.21-.73.19-.11.16-.05a.29.29,0,0,1,.16,0,1,1,0,0,1,.19.08l5.49,3.27.42.28.43.32c0-.18-.06-.36-.09-.53a4.73,4.73,0,0,1,0-.52l-.32-6.34a.68.68,0,0,1,0-.21.51.51,0,0,1,.07-.15.65.65,0,0,1,.12-.11l.19-.12Z" transform="translate(-89 -14)"/><path class="cls-2" d="M287.58,177.59a2.53,2.53,0,0,0,.87-.49,2,2,0,0,0,.51-.72,2.19,2.19,0,0,0,.17-.9,3.44,3.44,0,0,0-.19-1l-2-5.73,1.78-.61,2,5.73a5,5,0,0,1,.27,1.67,3.79,3.79,0,0,1-1.32,2.78,4.78,4.78,0,0,1-1.56.86,4.66,4.66,0,0,1-1.76.28,3.84,3.84,0,0,1-1.53-.39,3.8,3.8,0,0,1-1.22-1,4.83,4.83,0,0,1-.82-1.48l-2-5.74,1.78-.61,2,5.73a3.47,3.47,0,0,0,.49.94,2.34,2.34,0,0,0,.69.61,2.08,2.08,0,0,0,.86.24A2.29,2.29,0,0,0,287.58,177.59Z" transform="translate(-89 -14)"/><path class="cls-2" d="M295.72,177l-1.85.39-2.06-9.91,1.85-.39Z" transform="translate(-89 -14)"/><path class="cls-2" d="M307.18,167.33l-3.05.13.38,8.57-1.88.09-.38-8.57-3.05.14-.07-1.55,8-.36Z" transform="translate(-89 -14)"/><path class="cls-2" d="M310.5,169.75a3.79,3.79,0,0,1,1-.55,2.73,2.73,0,0,1,1.2-.13,2.65,2.65,0,0,1,1,.3,2,2,0,0,1,.7.63,2.29,2.29,0,0,1,.38.9,3.67,3.67,0,0,1,.05,1.11l-.43,4.55-1.72-.16.43-4.55a1.62,1.62,0,0,0-.2-1,1.16,1.16,0,0,0-.88-.44,1.8,1.8,0,0,0-.86.12,3.16,3.16,0,0,0-.79.48l-.49,5.17-1.72-.16,1-10.35,1.72.16Z" transform="translate(-89 -14)"/><path class="cls-2" d="M317.77,173.8a3.26,3.26,0,0,0,0,1,2.08,2.08,0,0,0,.24.74,1.62,1.62,0,0,0,.49.52,2.6,2.6,0,0,0,.72.3,2.39,2.39,0,0,0,.73.06,3.09,3.09,0,0,0,.57-.09l.44-.12a.67.67,0,0,1,.34,0,.37.37,0,0,1,.28.23l.34.73a3,3,0,0,1-.75.4,4,4,0,0,1-.81.19,4.5,4.5,0,0,1-.82,0,5.88,5.88,0,0,1-.77-.13,3.9,3.9,0,0,1-1.3-.55,3.3,3.3,0,0,1-.93-1,3.59,3.59,0,0,1-.45-1.35,4.49,4.49,0,0,1,.11-1.68,4.1,4.1,0,0,1,.54-1.29,3.3,3.3,0,0,1,.92-.94,3.2,3.2,0,0,1,1.23-.5,3.69,3.69,0,0,1,1.47.06,3.41,3.41,0,0,1,1.17.49,2.85,2.85,0,0,1,.82.84,2.82,2.82,0,0,1,.4,1.14,4,4,0,0,1-.08,1.4,1.08,1.08,0,0,1-.21.5.37.37,0,0,1-.34.06Zm3.45-.27a2.27,2.27,0,0,0,0-.63,1.61,1.61,0,0,0-.16-.58,1.38,1.38,0,0,0-.39-.45,1.66,1.66,0,0,0-.63-.28,1.61,1.61,0,0,0-1.24.15,2,2,0,0,0-.81,1.06Z" transform="translate(-89 -14)"/><path class="cls-2" d="M322.64,178.33l2.77-6.63,1,.41a.43.43,0,0,1,.29.46l-.1.53a5.38,5.38,0,0,1,.51-.2,3.21,3.21,0,0,1,.52-.11,3.25,3.25,0,0,1,.54,0,2.66,2.66,0,0,1,.58.16,1.79,1.79,0,0,1,.89.77,2.22,2.22,0,0,1,.22,1.16,2.43,2.43,0,0,1,.63-.41,2.28,2.28,0,0,1,.67-.17,2.61,2.61,0,0,1,.68,0,2.94,2.94,0,0,1,.66.19,3,3,0,0,1,.91.58,2.15,2.15,0,0,1,.51.79,2.36,2.36,0,0,1,.11,1,4,4,0,0,1-.29,1.13l-1.77,4.22-1.59-.67,1.76-4.22a1.49,1.49,0,0,0,.12-1.07,1.07,1.07,0,0,0-.68-.65,1.24,1.24,0,0,0-.49-.11,1.27,1.27,0,0,0-.47.09,1.14,1.14,0,0,0-.41.29,1.44,1.44,0,0,0-.32.51l-1.77,4.22-1.6-.67,1.76-4.22a1.51,1.51,0,0,0,.14-1.08,1,1,0,0,0-.66-.63,1.36,1.36,0,0,0-.72-.1,2.48,2.48,0,0,0-.75.23l-2,4.85Z" transform="translate(-89 -14)"/><path class="cls-2" d="M335.9,180.82a3.74,3.74,0,0,0-.35.91,2.06,2.06,0,0,0,0,.78,1.65,1.65,0,0,0,.3.66,2.24,2.24,0,0,0,.58.51,2.17,2.17,0,0,0,.66.31,3.33,3.33,0,0,0,.56.1l.46,0a.68.68,0,0,1,.33.1.35.35,0,0,1,.19.3l.08.8a2.74,2.74,0,0,1-.85.13,3.75,3.75,0,0,1-.82-.09,4.1,4.1,0,0,1-.77-.26,4.51,4.51,0,0,1-.69-.37,3.81,3.81,0,0,1-1-.95,3.15,3.15,0,0,1-.56-1.22,3.58,3.58,0,0,1,0-1.42,4.76,4.76,0,0,1,.66-1.55,3.93,3.93,0,0,1,.94-1,3.36,3.36,0,0,1,1.18-.59,3.28,3.28,0,0,1,1.33-.06,3.56,3.56,0,0,1,1.37.54,3.5,3.5,0,0,1,.94.85,2.77,2.77,0,0,1,.49,2.27,3.68,3.68,0,0,1-.54,1.3,1.11,1.11,0,0,1-.35.4.36.36,0,0,1-.35-.06Zm3.34.89a2,2,0,0,0,.26-.59,1.49,1.49,0,0,0,0-.59,1.34,1.34,0,0,0-.22-.56,1.52,1.52,0,0,0-.5-.47,1.57,1.57,0,0,0-1.22-.27,2.06,2.06,0,0,0-1.11.73Z" transform="translate(-89 -14)"/><path class="cls-3" d="M277.17,232.44a.41.41,0,0,1,.3.12l.83.89a3.88,3.88,0,0,1-1.53,1.19,5.32,5.32,0,0,1-2.17.41,5.13,5.13,0,0,1-2.05-.39,4.41,4.41,0,0,1-1.55-1.08,4.85,4.85,0,0,1-1-1.65,6.51,6.51,0,0,1-.18-3.51,5,5,0,0,1,.48-1.26,4.87,4.87,0,0,1,.76-1,4.84,4.84,0,0,1,2.23-1.28,5.79,5.79,0,0,1,1.41-.17,5.22,5.22,0,0,1,1.06.1,4.56,4.56,0,0,1,.93.27,4.65,4.65,0,0,1,.8.42,4.57,4.57,0,0,1,.67.55l-.71,1a.61.61,0,0,1-.16.16.45.45,0,0,1-.27.07.61.61,0,0,1-.34-.12c-.11-.08-.25-.16-.42-.26a2.8,2.8,0,0,0-.62-.27,3.19,3.19,0,0,0-1-.12,3,3,0,0,0-1.17.23,2.63,2.63,0,0,0-.91.67,3,3,0,0,0-.59,1.08,4.57,4.57,0,0,0-.21,1.45,4.33,4.33,0,0,0,.22,1.45,3.32,3.32,0,0,0,.63,1.09,2.6,2.6,0,0,0,.92.66,2.69,2.69,0,0,0,1.13.23,6.32,6.32,0,0,0,.65,0,4.28,4.28,0,0,0,.54-.12,2.86,2.86,0,0,0,.47-.22,3.88,3.88,0,0,0,.44-.33.76.76,0,0,1,.16-.11A.39.39,0,0,1,277.17,232.44Z" transform="translate(-89 -14)"/><path class="cls-3" d="M282.32,227.61a3.94,3.94,0,0,1,1.48.26,3.17,3.17,0,0,1,1.87,1.9,4.75,4.75,0,0,1,0,3.1,3.32,3.32,0,0,1-.73,1.17,3.26,3.26,0,0,1-1.14.74,4.37,4.37,0,0,1-3,0,3.17,3.17,0,0,1-1.14-.74,3.21,3.21,0,0,1-.74-1.17,4.75,4.75,0,0,1,0-3.1,3.23,3.23,0,0,1,1.88-1.9A4,4,0,0,1,282.32,227.61Zm0,6a1.38,1.38,0,0,0,1.22-.57,2.91,2.91,0,0,0,.4-1.69,3,3,0,0,0-.4-1.7,1.38,1.38,0,0,0-1.22-.57,1.42,1.42,0,0,0-1.25.57,3,3,0,0,0-.4,1.7,3,3,0,0,0,.4,1.69A1.42,1.42,0,0,0,282.32,233.59Z" transform="translate(-89 -14)"/><path class="cls-3" d="M287.15,234.94v-7.22h1.19a.46.46,0,0,1,.48.34l.11.47c.13-.13.26-.26.39-.37a3,3,0,0,1,.43-.29,2.72,2.72,0,0,1,.5-.19,2.22,2.22,0,0,1,.59-.07,1.72,1.72,0,0,1,1.1.35,2.23,2.23,0,0,1,.66.94,2.13,2.13,0,0,1,.43-.59,2.2,2.2,0,0,1,.56-.4,2.71,2.71,0,0,1,.64-.23,3.14,3.14,0,0,1,.68-.07,3,3,0,0,1,1.08.18,2,2,0,0,1,.79.54,2.32,2.32,0,0,1,.48.86,3.49,3.49,0,0,1,.17,1.16v4.59H295.5v-4.59q0-1.26-1.08-1.26a1.14,1.14,0,0,0-.46.08,1,1,0,0,0-.36.24,1.24,1.24,0,0,0-.25.4,1.8,1.8,0,0,0-.08.54v4.59h-1.93v-4.59a1.41,1.41,0,0,0-.27-1,1,1,0,0,0-.8-.29,1.39,1.39,0,0,0-.63.15,2.09,2.09,0,0,0-.56.44v5.26Z" transform="translate(-89 -14)"/><path class="cls-3" d="M300.78,228.67a3.81,3.81,0,0,1,.46-.44,3.24,3.24,0,0,1,.53-.35,2.66,2.66,0,0,1,.6-.22,3.06,3.06,0,0,1,.7-.08,2.29,2.29,0,0,1,1.9,1,3.47,3.47,0,0,1,.55,1.16,5.77,5.77,0,0,1,.19,1.57,4.81,4.81,0,0,1-.22,1.5,3.45,3.45,0,0,1-.62,1.19,2.88,2.88,0,0,1-1,.79,2.79,2.79,0,0,1-1.27.28,2.3,2.3,0,0,1-1.73-.65v2.88H299v-9.55h1.19a.46.46,0,0,1,.48.34Zm.11,4.36a1.5,1.5,0,0,0,.59.44,1.72,1.72,0,0,0,.68.13,1.47,1.47,0,0,0,.64-.13,1.23,1.23,0,0,0,.49-.42,2,2,0,0,0,.32-.72,4.1,4.1,0,0,0,.12-1.05,5,5,0,0,0-.1-1,2,2,0,0,0-.26-.67,1.08,1.08,0,0,0-.42-.38,1.23,1.23,0,0,0-.55-.11,1.66,1.66,0,0,0-.86.2,2.31,2.31,0,0,0-.65.58Z" transform="translate(-89 -14)"/><path class="cls-3" d="M310.21,227.61a3.85,3.85,0,0,1,1.47.26,3.21,3.21,0,0,1,1.15.74,3.28,3.28,0,0,1,.73,1.16,4.75,4.75,0,0,1,0,3.1,3.32,3.32,0,0,1-.73,1.17,3.21,3.21,0,0,1-1.15.74,3.85,3.85,0,0,1-1.47.26,4,4,0,0,1-1.49-.26,3.08,3.08,0,0,1-1.14-.74,3.21,3.21,0,0,1-.74-1.17,4.58,4.58,0,0,1,0-3.1,3.16,3.16,0,0,1,.74-1.16,3.08,3.08,0,0,1,1.14-.74A4,4,0,0,1,310.21,227.61Zm0,6a1.38,1.38,0,0,0,1.22-.57,2.91,2.91,0,0,0,.4-1.69,3,3,0,0,0-.4-1.7,1.38,1.38,0,0,0-1.22-.57,1.42,1.42,0,0,0-1.25.57,3,3,0,0,0-.4,1.7A3,3,0,0,0,309,233,1.42,1.42,0,0,0,310.21,233.59Z" transform="translate(-89 -14)"/><path class="cls-3" d="M316.83,228.56a4,4,0,0,1,.95-.69,2.93,2.93,0,0,1,.57-.19,2.73,2.73,0,0,1,.66-.07,2.61,2.61,0,0,1,1,.2,2.31,2.31,0,0,1,.77.57,2.59,2.59,0,0,1,.47.87,3.8,3.8,0,0,1,.15,1.1v4.59h-1.92v-4.59a1.43,1.43,0,0,0-.28-.93,1,1,0,0,0-.83-.33,1.66,1.66,0,0,0-.76.17,2.6,2.6,0,0,0-.68.49v5.19H315v-7.22h1.19a.46.46,0,0,1,.48.34Z" transform="translate(-89 -14)"/><path class="cls-3" d="M324.52,231.63a2.3,2.3,0,0,0,.57,1.48,1.78,1.78,0,0,0,1.27.47,2,2,0,0,0,.69-.1,2.45,2.45,0,0,0,.51-.21l.4-.21a.8.8,0,0,1,.36-.09.43.43,0,0,1,.35.17l.56.7a3.39,3.39,0,0,1-.68.59,3.62,3.62,0,0,1-.77.37,4,4,0,0,1-.81.19,7.11,7.11,0,0,1-.78,0,3.8,3.8,0,0,1-1.41-.25,3.1,3.1,0,0,1-1.14-.73,3.49,3.49,0,0,1-.77-1.21,4.53,4.53,0,0,1-.28-1.67,4,4,0,0,1,.24-1.39,3.21,3.21,0,0,1,.7-1.13,3.35,3.35,0,0,1,1.1-.77,3.67,3.67,0,0,1,1.47-.28,3.51,3.51,0,0,1,1.28.22,2.86,2.86,0,0,1,1,.64,2.94,2.94,0,0,1,.66,1,3.84,3.84,0,0,1,.23,1.4,1.94,1.94,0,0,1,0,.36.63.63,0,0,1-.07.22.25.25,0,0,1-.13.12.69.69,0,0,1-.22,0Zm3-1.15a1.89,1.89,0,0,0-.08-.58,1.38,1.38,0,0,0-.25-.48,1.31,1.31,0,0,0-.44-.33,1.56,1.56,0,0,0-.64-.12,1.5,1.5,0,0,0-1.09.39,2,2,0,0,0-.51,1.12Z" transform="translate(-89 -14)"/><path class="cls-3" d="M332.27,228.56a5,5,0,0,1,.45-.38,3.21,3.21,0,0,1,.5-.31,2.93,2.93,0,0,1,.57-.19,2.73,2.73,0,0,1,.66-.07,2.61,2.61,0,0,1,1,.2,2.31,2.31,0,0,1,.77.57,2.59,2.59,0,0,1,.47.87,3.8,3.8,0,0,1,.15,1.1v4.59H335v-4.59a1.38,1.38,0,0,0-.28-.93,1,1,0,0,0-.83-.33,1.66,1.66,0,0,0-.76.17,2.78,2.78,0,0,0-.68.49v5.19h-1.93v-7.22h1.19a.46.46,0,0,1,.48.34Z" transform="translate(-89 -14)"/><path class="cls-3" d="M340.81,235.05a2.6,2.6,0,0,1-.87-.14,1.86,1.86,0,0,1-.63-.41,1.73,1.73,0,0,1-.4-.65,2.76,2.76,0,0,1-.13-.85v-3.89h-.68a.4.4,0,0,1-.26-.1.39.39,0,0,1-.11-.3V228l1.16-.21.39-1.87a.39.39,0,0,1,.43-.32h1v2.2h1.86v1.35h-1.86v3.76a.73.73,0,0,0,.15.48.48.48,0,0,0,.41.17.75.75,0,0,0,.23,0l.17-.07.13-.07.12,0a.2.2,0,0,1,.14,0,.38.38,0,0,1,.12.13l.58.92a2.94,2.94,0,0,1-.91.48A3.28,3.28,0,0,1,340.81,235.05Z" transform="translate(-89 -14)"/><path class="cls-2" d="M277.33,172.29l5.2,8.69-1.42.85-3.36-5.61c-.13-.22-.27-.47-.4-.75l.33,6.5a.69.69,0,0,1-.36.7l-.23.14a.69.69,0,0,1-.78,0l-5.62-3.36.27.38.22.34,3.36,5.61-1.43.86-5.19-8.69,1.21-.73.19-.11.16-.05a.29.29,0,0,1,.16,0,1,1,0,0,1,.19.08l5.49,3.27.42.28.43.32c0-.18-.06-.36-.09-.53a4.73,4.73,0,0,1,0-.52l-.32-6.34a.68.68,0,0,1,0-.21.51.51,0,0,1,.07-.15.65.65,0,0,1,.12-.11l.19-.12Z" transform="translate(-89 -14)"/><path class="cls-2" d="M287.58,177.59a2.53,2.53,0,0,0,.87-.49,2,2,0,0,0,.51-.72,2.19,2.19,0,0,0,.17-.9,3.44,3.44,0,0,0-.19-1l-2-5.73,1.78-.61,2,5.73a5,5,0,0,1,.27,1.67,3.79,3.79,0,0,1-1.32,2.78,4.78,4.78,0,0,1-1.56.86,4.66,4.66,0,0,1-1.76.28,3.84,3.84,0,0,1-1.53-.39,3.8,3.8,0,0,1-1.22-1,4.83,4.83,0,0,1-.82-1.48l-2-5.74,1.78-.61,2,5.73a3.47,3.47,0,0,0,.49.94,2.34,2.34,0,0,0,.69.61,2.08,2.08,0,0,0,.86.24A2.29,2.29,0,0,0,287.58,177.59Z" transform="translate(-89 -14)"/><path class="cls-2" d="M295.72,177l-1.85.39-2.06-9.91,1.85-.39Z" transform="translate(-89 -14)"/><path class="cls-2" d="M307.18,167.33l-3.05.13.38,8.57-1.88.09-.38-8.57-3.05.14-.07-1.55,8-.36Z" transform="translate(-89 -14)"/><path class="cls-2" d="M310.5,169.75a3.79,3.79,0,0,1,1-.55,2.73,2.73,0,0,1,1.2-.13,2.65,2.65,0,0,1,1,.3,2,2,0,0,1,.7.63,2.29,2.29,0,0,1,.38.9,3.67,3.67,0,0,1,.05,1.11l-.43,4.55-1.72-.16.43-4.55a1.62,1.62,0,0,0-.2-1,1.16,1.16,0,0,0-.88-.44,1.8,1.8,0,0,0-.86.12,3.16,3.16,0,0,0-.79.48l-.49,5.17-1.72-.16,1-10.35,1.72.16Z" transform="translate(-89 -14)"/><path class="cls-2" d="M317.77,173.8a3.26,3.26,0,0,0,0,1,2.08,2.08,0,0,0,.24.74,1.62,1.62,0,0,0,.49.52,2.6,2.6,0,0,0,.72.3,2.39,2.39,0,0,0,.73.06,3.09,3.09,0,0,0,.57-.09l.44-.12a.67.67,0,0,1,.34,0,.37.37,0,0,1,.28.23l.34.73a3,3,0,0,1-.75.4,4,4,0,0,1-.81.19,4.5,4.5,0,0,1-.82,0,5.88,5.88,0,0,1-.77-.13,3.9,3.9,0,0,1-1.3-.55,3.3,3.3,0,0,1-.93-1,3.59,3.59,0,0,1-.45-1.35,4.49,4.49,0,0,1,.11-1.68,4.1,4.1,0,0,1,.54-1.29,3.3,3.3,0,0,1,.92-.94,3.2,3.2,0,0,1,1.23-.5,3.69,3.69,0,0,1,1.47.06,3.41,3.41,0,0,1,1.17.49,2.85,2.85,0,0,1,.82.84,2.82,2.82,0,0,1,.4,1.14,4,4,0,0,1-.08,1.4,1.08,1.08,0,0,1-.21.5.37.37,0,0,1-.34.06Zm3.45-.27a2.27,2.27,0,0,0,0-.63,1.61,1.61,0,0,0-.16-.58,1.38,1.38,0,0,0-.39-.45,1.66,1.66,0,0,0-.63-.28,1.61,1.61,0,0,0-1.24.15,2,2,0,0,0-.81,1.06Z" transform="translate(-89 -14)"/><path class="cls-2" d="M322.64,178.33l2.77-6.63,1,.41a.43.43,0,0,1,.29.46l-.1.53a5.38,5.38,0,0,1,.51-.2,3.21,3.21,0,0,1,.52-.11,3.25,3.25,0,0,1,.54,0,2.66,2.66,0,0,1,.58.16,1.79,1.79,0,0,1,.89.77,2.22,2.22,0,0,1,.22,1.16,2.43,2.43,0,0,1,.63-.41,2.28,2.28,0,0,1,.67-.17,2.61,2.61,0,0,1,.68,0,2.94,2.94,0,0,1,.66.19,3,3,0,0,1,.91.58,2.15,2.15,0,0,1,.51.79,2.36,2.36,0,0,1,.11,1,4,4,0,0,1-.29,1.13l-1.77,4.22-1.59-.67,1.76-4.22a1.49,1.49,0,0,0,.12-1.07,1.07,1.07,0,0,0-.68-.65,1.24,1.24,0,0,0-.49-.11,1.27,1.27,0,0,0-.47.09,1.14,1.14,0,0,0-.41.29,1.44,1.44,0,0,0-.32.51l-1.77,4.22-1.6-.67,1.76-4.22a1.51,1.51,0,0,0,.14-1.08,1,1,0,0,0-.66-.63,1.36,1.36,0,0,0-.72-.1,2.48,2.48,0,0,0-.75.23l-2,4.85Z" transform="translate(-89 -14)"/><path class="cls-2" d="M335.9,180.82a3.74,3.74,0,0,0-.35.91,2.06,2.06,0,0,0,0,.78,1.65,1.65,0,0,0,.3.66,2.24,2.24,0,0,0,.58.51,2.17,2.17,0,0,0,.66.31,3.33,3.33,0,0,0,.56.1l.46,0a.68.68,0,0,1,.33.1.35.35,0,0,1,.19.3l.08.8a2.74,2.74,0,0,1-.85.13,3.75,3.75,0,0,1-.82-.09,4.1,4.1,0,0,1-.77-.26,4.51,4.51,0,0,1-.69-.37,3.81,3.81,0,0,1-1-.95,3.15,3.15,0,0,1-.56-1.22,3.58,3.58,0,0,1,0-1.42,4.76,4.76,0,0,1,.66-1.55,3.93,3.93,0,0,1,.94-1,3.36,3.36,0,0,1,1.18-.59,3.28,3.28,0,0,1,1.33-.06,3.56,3.56,0,0,1,1.37.54,3.5,3.5,0,0,1,.94.85,2.77,2.77,0,0,1,.49,2.27,3.68,3.68,0,0,1-.54,1.3,1.11,1.11,0,0,1-.35.4.36.36,0,0,1-.35-.06Zm3.34.89a2,2,0,0,0,.26-.59,1.49,1.49,0,0,0,0-.59,1.34,1.34,0,0,0-.22-.56,1.52,1.52,0,0,0-.5-.47,1.57,1.57,0,0,0-1.22-.27,2.06,2.06,0,0,0-1.11.73Z" transform="translate(-89 -14)"/></svg>