<svg id="Layer_3" data-name="Layer 3" xmlns="http://www.w3.org/2000/svg" viewBox="0 0 434 217.21"><defs><style>.cls-1{fill:none;stroke:#70b2e2;stroke-miterlimit:10;stroke-width:2px;}.cls-2{fill:#70b2e2;}.cls-3{fill:#fff;}</style></defs><title>theme-onion-at-scale</title><path class="cls-1" d="M16.37,231c0-119.29,96.71-216,216-216s216,96.71,216,216" transform="translate(-15.37 -14)"/><path class="cls-1" d="M41.12,231.21C41.12,125.58,126.75,40,232.37,40s191.26,85.63,191.26,191.26" transform="translate(-15.37 -14)"/><path class="cls-2" d="M169.54,33.61a.65.65,0,0,1-.11.25.33.33,0,0,1-.2.14.61.61,0,0,1-.33,0l-.47-.1a3.58,3.58,0,0,0-.6-.06,2.4,2.4,0,0,0-.75.14,2.11,2.11,0,0,0-.62.3,1.5,1.5,0,0,0-.39.41,1,1,0,0,0-.15.47,1.17,1.17,0,0,0,.07.52.9.9,0,0,0,.37.51,1.74,1.74,0,0,0,.63.21,4.09,4.09,0,0,0,.81.05h.9q.47,0,.93.06a2.82,2.82,0,0,1,.87.25,2.24,2.24,0,0,1,.74.54,2.59,2.59,0,0,1,.52,1,3.25,3.25,0,0,1,.18,1.29,3,3,0,0,1-.32,1.21,3.26,3.26,0,0,1-.82,1,4,4,0,0,1-1.34.71,4.45,4.45,0,0,1-.93.21,5,5,0,0,1-.94,0,5.28,5.28,0,0,1-.9-.14,4.12,4.12,0,0,1-.81-.31l.24-1a.45.45,0,0,1,.12-.21.41.41,0,0,1,.21-.14.69.69,0,0,1,.4,0l.56.15a3.05,3.05,0,0,0,.72.1A2.57,2.57,0,0,0,169,41a1.81,1.81,0,0,0,1.06-.75,1.37,1.37,0,0,0,.08-1.18,1,1,0,0,0-.4-.55,1.59,1.59,0,0,0-.63-.24,4.19,4.19,0,0,0-.81,0l-.89,0a5.56,5.56,0,0,1-.91,0,2.69,2.69,0,0,1-.88-.25,2.37,2.37,0,0,1-.75-.58,2.9,2.9,0,0,1-.55-1,2.66,2.66,0,0,1-.13-1.09,2.84,2.84,0,0,1,.31-1.09,3.11,3.11,0,0,1,.78-.94,3.74,3.74,0,0,1,1.27-.68,4.6,4.6,0,0,1,1.65-.25,3.69,3.69,0,0,1,1.47.33Z" transform="translate(-15.37 -14)"/><path class="cls-2" d="M173.24,31.45a.86.86,0,0,1,0,.42,1.06,1.06,0,0,1-.14.4.94.94,0,0,1-.27.33,1.22,1.22,0,0,1-.39.21,1.24,1.24,0,0,1-.43,0,1.11,1.11,0,0,1-.4-.13,1,1,0,0,1-.32-.26,1.17,1.17,0,0,1-.21-.38,1.29,1.29,0,0,1,0-.44,1.11,1.11,0,0,1,.13-.4,1,1,0,0,1,.26-.32,1,1,0,0,1,.38-.21,1.12,1.12,0,0,1,.44,0,1.39,1.39,0,0,1,.41.12,1.19,1.19,0,0,1,.33.27A.92.92,0,0,1,173.24,31.45Zm.38,2.07,2.07,6.88-1.66.5L172,34Z" transform="translate(-15.37 -14)"/><path class="cls-2" d="M179.68,39.38a1.93,1.93,0,0,1-1.53-.13,2.06,2.06,0,0,1-.87-1.27l-1.07-3.87-.71.2a.36.36,0,0,1-.25,0,.37.37,0,0,1-.17-.24l-.18-.66L176,32.9l-.17-2a.31.31,0,0,1,.07-.24.4.4,0,0,1,.22-.15l.86-.24.61,2.18,1.84-.51.33,1.19-1.84.51,1,3.75a.75.75,0,0,0,.3.46.5.5,0,0,0,.48.06.72.72,0,0,0,.25-.1l.16-.13.12-.12a.26.26,0,0,1,.11-.07h.13l.13.09.73.67a2.74,2.74,0,0,1-.71.69A3.49,3.49,0,0,1,179.68,39.38Z" transform="translate(-15.37 -14)"/><path class="cls-2" d="M186.61,30.1l1.69,7-1,.25a.4.4,0,0,1-.5-.2l-.25-.53a3.93,3.93,0,0,1-.78.93,2.76,2.76,0,0,1-1.15.57,2.57,2.57,0,0,1-1.06,0,2.11,2.11,0,0,1-.87-.37,2.56,2.56,0,0,1-.65-.73,3.9,3.9,0,0,1-.42-1l-1.07-4.43,1.68-.41,1.07,4.44a1.57,1.57,0,0,0,.54.91,1.13,1.13,0,0,0,1,.14,1.82,1.82,0,0,0,.77-.39,3,3,0,0,0,.59-.71l-1.22-5.05Z" transform="translate(-15.37 -14)"/><path class="cls-2" d="M188.47,30.72a4.25,4.25,0,0,1,2.7-1.71,3,3,0,0,1,1.15,0,2.35,2.35,0,0,1,1.62,1.15,3.43,3.43,0,0,1,.4,1.06l.9,4.45-.76.15a.74.74,0,0,1-.39,0,.48.48,0,0,1-.26-.25l-.26-.48c-.15.2-.29.37-.43.53a3.63,3.63,0,0,1-.47.41,3.26,3.26,0,0,1-.55.31,3.77,3.77,0,0,1-.67.21,2.74,2.74,0,0,1-.85,0,1.79,1.79,0,0,1-.73-.23,1.63,1.63,0,0,1-.54-.51,2,2,0,0,1-.32-.79,1.46,1.46,0,0,1,0-.55,1.42,1.42,0,0,1,.19-.57,2.55,2.55,0,0,1,.43-.56,3.36,3.36,0,0,1,.72-.53,6.37,6.37,0,0,1,1-.48,10.83,10.83,0,0,1,1.4-.41l-.09-.41a1.56,1.56,0,0,0-.51-1,1.14,1.14,0,0,0-.94-.16,2.18,2.18,0,0,0-.66.24,3.1,3.1,0,0,0-.44.31l-.32.29a.77.77,0,0,1-.36.18.5.5,0,0,1-.32,0,.61.61,0,0,1-.24-.17ZM193,33a8.8,8.8,0,0,0-1.21.38,3.2,3.2,0,0,0-.75.4,1.08,1.08,0,0,0-.37.42.78.78,0,0,0,0,.45.75.75,0,0,0,.39.58,1.17,1.17,0,0,0,.73,0,1.94,1.94,0,0,0,.86-.37,2.81,2.81,0,0,0,.63-.72Z" transform="translate(-15.37 -14)"/><path class="cls-2" d="M203.81,34.21l-1.71.27-.94-5.81-3.29.54.62,3.84a.79.79,0,0,0,.25.49.57.57,0,0,0,.48.12.88.88,0,0,0,.26-.09l.17-.11.13-.1a.34.34,0,0,1,.12-.06.27.27,0,0,1,.13,0l.12.1.65.74a2.74,2.74,0,0,1-.78.61,3.33,3.33,0,0,1-1,.33,1.89,1.89,0,0,1-1.5-.29,2,2,0,0,1-.73-1.36l-.65-4-.72.11a.3.3,0,0,1-.25-.05.33.33,0,0,1-.14-.25l-.11-.68,1.1-.38.05-2a.38.38,0,0,1,.1-.24.39.39,0,0,1,.23-.12l.89-.14.36,2.23,5-.81ZM202.61,25a.9.9,0,0,1,0,.43,1.21,1.21,0,0,1-.18.38,1.28,1.28,0,0,1-.32.29,1,1,0,0,1-.41.15.88.88,0,0,1-.43,0,1,1,0,0,1-.38-.17,1.08,1.08,0,0,1-.29-.31,1.08,1.08,0,0,1-.13-.84,1,1,0,0,1,.17-.38,1,1,0,0,1,.3-.29,1.09,1.09,0,0,1,.4-.16,1.36,1.36,0,0,1,.45,0,1.38,1.38,0,0,1,.39.18,1.18,1.18,0,0,1,.29.3A1,1,0,0,1,202.61,25Z" transform="translate(-15.37 -14)"/><path class="cls-2" d="M207.75,26.36a4.18,4.18,0,0,1,1.47.08,3.16,3.16,0,0,1,1.2.6,3.23,3.23,0,0,1,.85,1.07,4.25,4.25,0,0,1,.43,1.49,4.45,4.45,0,0,1-.06,1.56,3.5,3.5,0,0,1-.58,1.25,3.32,3.32,0,0,1-1,.87,4.19,4.19,0,0,1-2.9.34,3.13,3.13,0,0,1-2-1.67,4.38,4.38,0,0,1-.44-1.5,4.46,4.46,0,0,1,.07-1.56,3.18,3.18,0,0,1,.58-1.23,3.13,3.13,0,0,1,1-.87A3.94,3.94,0,0,1,207.75,26.36Zm.72,6a1.57,1.57,0,0,0,1.25-.76,3,3,0,0,0,.21-1.8,3,3,0,0,0-.64-1.71,1.5,1.5,0,0,0-1.38-.45,1.56,1.56,0,0,0-1.27.77,3,3,0,0,0-.22,1.81,2.93,2.93,0,0,0,.64,1.69A1.55,1.55,0,0,0,208.47,32.39Z" transform="translate(-15.37 -14)"/><path class="cls-2" d="M214.45,26.66a6,6,0,0,1,.43-.44,3.27,3.27,0,0,1,.48-.35,2.81,2.81,0,0,1,.56-.25,2.75,2.75,0,0,1,.67-.13,2.54,2.54,0,0,1,1,.12,2,2,0,0,1,.8.5,2.24,2.24,0,0,1,.53.82,3.56,3.56,0,0,1,.25,1.08l.36,4.56-1.72.14-.36-4.56a1.55,1.55,0,0,0-.39-1,1.13,1.13,0,0,0-.94-.29,1.94,1.94,0,0,0-.82.27,3.3,3.3,0,0,0-.7.61l.42,5.18-1.72.14-.58-7.16,1.06-.08a.42.42,0,0,1,.46.27Z" transform="translate(-15.37 -14)"/><path class="cls-2" d="M220.7,26.31a4.28,4.28,0,0,1,2.93-1.26,3.18,3.18,0,0,1,1.14.16,2.38,2.38,0,0,1,.86.54,2.33,2.33,0,0,1,.56.86,3.47,3.47,0,0,1,.23,1.11l.19,4.53-.78,0a.71.71,0,0,1-.38-.06.51.51,0,0,1-.23-.28l-.17-.51q-.27.26-.51.45a3.32,3.32,0,0,1-.53.33,2.76,2.76,0,0,1-.59.22,3.57,3.57,0,0,1-.7.1,2.85,2.85,0,0,1-.84-.09,1.74,1.74,0,0,1-.68-.34,1.5,1.5,0,0,1-.46-.59,2,2,0,0,1-.19-.84,1.66,1.66,0,0,1,.06-.54,1.69,1.69,0,0,1,.28-.53,2.36,2.36,0,0,1,.51-.48,3.33,3.33,0,0,1,.8-.42,7.4,7.4,0,0,1,1.1-.31,12.73,12.73,0,0,1,1.45-.18l0-.42a1.58,1.58,0,0,0-.35-1.05,1.1,1.1,0,0,0-.9-.31,1.94,1.94,0,0,0-.7.13,2.29,2.29,0,0,0-.47.24l-.37.23a.85.85,0,0,1-.38.12.51.51,0,0,1-.31-.08.77.77,0,0,1-.22-.22Zm4.09,3a8.67,8.67,0,0,0-1.25.18,3.28,3.28,0,0,0-.81.28,1,1,0,0,0-.42.36.74.74,0,0,0-.12.43.76.76,0,0,0,.3.64,1.19,1.19,0,0,0,.71.17,2.07,2.07,0,0,0,.91-.24,2.73,2.73,0,0,0,.74-.61Z" transform="translate(-15.37 -14)"/><path class="cls-2" d="M229.74,21.8l.17,10.4-1.73,0L228,21.83Z" transform="translate(-15.37 -14)"/><path class="cls-2" d="M245.05,27.45a5.74,5.74,0,0,1-.45,2.05,4.84,4.84,0,0,1-1.09,1.6,4.93,4.93,0,0,1-1.66,1,5.35,5.35,0,0,1-2.11.31,5.52,5.52,0,0,1-2.08-.46,5,5,0,0,1-1.58-1.14,4.86,4.86,0,0,1-1-1.68,5.47,5.47,0,0,1-.3-2.08,5.64,5.64,0,0,1,.45-2A4.67,4.67,0,0,1,238,22.4a5.54,5.54,0,0,1,2.11-.31,6,6,0,0,1,1.44.23,5.29,5.29,0,0,1,1.23.55,4.85,4.85,0,0,1,1,.83,4.6,4.6,0,0,1,.73,1.07,5.22,5.22,0,0,1,.44,1.26A6.6,6.6,0,0,1,245.05,27.45Zm-1.93-.07a4.43,4.43,0,0,0-.17-1.5,3.21,3.21,0,0,0-.59-1.15,2.68,2.68,0,0,0-1-.74,3.46,3.46,0,0,0-1.32-.3,3.56,3.56,0,0,0-1.34.2,2.78,2.78,0,0,0-1,.67,3.2,3.2,0,0,0-.68,1.1,5.08,5.08,0,0,0-.11,3,3.11,3.11,0,0,0,.6,1.14,2.89,2.89,0,0,0,1,.74,3.46,3.46,0,0,0,1.33.29,3.6,3.6,0,0,0,1.34-.19,2.74,2.74,0,0,0,1-.67,3.36,3.36,0,0,0,.68-1.1A4.76,4.76,0,0,0,243.12,27.38Z" transform="translate(-15.37 -14)"/><path class="cls-2" d="M253.15,26l-3.43,6.92-1.56-.13-2.25-7.39,1.42.12a.54.54,0,0,1,.32.12.41.41,0,0,1,.15.24l1.06,3.94c.06.23.11.45.15.67s.07.44.09.65q.09-.31.21-.63c.07-.2.16-.42.25-.63l1.73-3.71a.5.5,0,0,1,.19-.22.53.53,0,0,1,.31-.06Z" transform="translate(-15.37 -14)"/><path class="cls-2" d="M254.89,30.05a3.23,3.23,0,0,0,.08,1,2,2,0,0,0,.32.71,1.53,1.53,0,0,0,.55.46,2.19,2.19,0,0,0,.75.22,2.5,2.5,0,0,0,.73,0,3.33,3.33,0,0,0,.55-.15l.42-.17a.76.76,0,0,1,.35-.06.36.36,0,0,1,.3.2l.42.68a3.34,3.34,0,0,1-.71.49,3.8,3.8,0,0,1-.78.27,4.48,4.48,0,0,1-.81.1,6.57,6.57,0,0,1-.78,0,4,4,0,0,1-1.36-.41,3.14,3.14,0,0,1-1-.86,3.34,3.34,0,0,1-.6-1.29,4.6,4.6,0,0,1-.08-1.68,3.88,3.88,0,0,1,.4-1.34,3.35,3.35,0,0,1,.81-1,3.23,3.23,0,0,1,1.17-.63,3.74,3.74,0,0,1,1.47-.11,3.7,3.7,0,0,1,1.22.37,2.84,2.84,0,0,1,.9.74,2.87,2.87,0,0,1,.52,1.1,3.56,3.56,0,0,1,.07,1.4,1.21,1.21,0,0,1-.14.51.36.36,0,0,1-.34.1Zm3.39-.64a2.27,2.27,0,0,0,0-.64,1.72,1.72,0,0,0-.22-.56,1.42,1.42,0,0,0-.44-.4,1.84,1.84,0,0,0-1.88.07,2.14,2.14,0,0,0-.68,1.14Z" transform="translate(-15.37 -14)"/><path class="cls-2" d="M263,28.54a3.1,3.1,0,0,1,.94-.88,1.69,1.69,0,0,1,1.13-.2,1.37,1.37,0,0,1,.76.33l-.3,1.27a.36.36,0,0,1-.13.16.29.29,0,0,1-.19,0,1.51,1.51,0,0,1-.3-.08,2.74,2.74,0,0,0-.39-.09,1.25,1.25,0,0,0-1,.18,1.65,1.65,0,0,0-.37.33,4.78,4.78,0,0,0-.33.47l-.66,4.37-1.71-.25,1.07-7.11,1,.16a.54.54,0,0,1,.35.14.6.6,0,0,1,.09.36Z" transform="translate(-15.37 -14)"/><path class="cls-2" d="M268.23,29.39a2.92,2.92,0,0,1,1-.85,1.66,1.66,0,0,1,1.14-.17,1.26,1.26,0,0,1,.75.35L270.74,30a.31.31,0,0,1-.13.16.22.22,0,0,1-.18,0,1.78,1.78,0,0,1-.31-.09,2.79,2.79,0,0,0-.39-.1,1.47,1.47,0,0,0-.51,0,1.3,1.3,0,0,0-.44.17,1.62,1.62,0,0,0-.38.32,2.89,2.89,0,0,0-.34.46l-.77,4.35-1.71-.3,1.26-7.07,1,.18a.42.42,0,0,1,.43.51Z" transform="translate(-15.37 -14)"/><path class="cls-2" d="M273.84,29.2l-1.41,7-1.7-.34,1.41-7Zm.65-2a1,1,0,0,1-.17.39,1.06,1.06,0,0,1-.31.29,1,1,0,0,1-.39.16,1.15,1.15,0,0,1-.84-.16,1.17,1.17,0,0,1-.29-.3,1.13,1.13,0,0,1-.17-.39,1,1,0,0,1,0-.42,1.08,1.08,0,0,1,.17-.41,1.22,1.22,0,0,1,.3-.3,1.1,1.1,0,0,1,.82-.16,1.05,1.05,0,0,1,.41.17,1.07,1.07,0,0,1,.3.3,1.15,1.15,0,0,1,.17.39A1.09,1.09,0,0,1,274.49,27.19Z" transform="translate(-15.37 -14)"/><path class="cls-2" d="M282.53,27.83,280.19,38l-1-.24a.41.41,0,0,1-.36-.4l0-.71a3.77,3.77,0,0,1-1.16.56,2.8,2.8,0,0,1-1.35,0,2.29,2.29,0,0,1-1-.48,2.35,2.35,0,0,1-.66-.88,3.53,3.53,0,0,1-.28-1.24,6,6,0,0,1,.17-1.57,5,5,0,0,1,.54-1.4,3.53,3.53,0,0,1,.88-1A2.8,2.8,0,0,1,277.1,30a2.77,2.77,0,0,1,1.31,0A2.4,2.4,0,0,1,280,31.13l.85-3.69Zm-2.82,4.54a1.76,1.76,0,0,0-.51-.64,1.81,1.81,0,0,0-.69-.31,1.64,1.64,0,0,0-.73,0,1.45,1.45,0,0,0-.62.31,2,2,0,0,0-.5.66,4,4,0,0,0-.36,1,4.42,4.42,0,0,0-.14,1.06,2.13,2.13,0,0,0,.12.76,1.07,1.07,0,0,0,.36.49,1.49,1.49,0,0,0,.57.26,1.75,1.75,0,0,0,.94,0,2.92,2.92,0,0,0,.84-.46Z" transform="translate(-15.37 -14)"/><path class="cls-2" d="M283.9,35.45a3.32,3.32,0,0,0-.06,1,1.89,1.89,0,0,0,.22.75,1.61,1.61,0,0,0,.47.54,2.2,2.2,0,0,0,.71.32,2.48,2.48,0,0,0,.72.1,4.39,4.39,0,0,0,.58-.07L287,38a.79.79,0,0,1,.34,0,.37.37,0,0,1,.27.24l.32.74a3.06,3.06,0,0,1-.77.38,3.82,3.82,0,0,1-.82.15,3.66,3.66,0,0,1-.81,0,4.57,4.57,0,0,1-.77-.15,3.87,3.87,0,0,1-1.28-.6,3.18,3.18,0,0,1-.89-1,3.39,3.39,0,0,1-.4-1.35,4.37,4.37,0,0,1,.17-1.68,3.9,3.9,0,0,1,.59-1.27,3.16,3.16,0,0,1,.95-.91,3.28,3.28,0,0,1,1.25-.45,3.79,3.79,0,0,1,2.62.65,2.93,2.93,0,0,1,.79.86,3,3,0,0,1,.35,1.16,3.84,3.84,0,0,1-.13,1.4,1.07,1.07,0,0,1-.22.48.34.34,0,0,1-.35,0Zm3.46-.14a2,2,0,0,0,.07-.64,1.41,1.41,0,0,0-.14-.58,1.16,1.16,0,0,0-.37-.46,1.77,1.77,0,0,0-1.86-.2,2,2,0,0,0-.85,1Z" transform="translate(-15.37 -14)"/><path class="cls-2" d="M294.76,36.1a.5.5,0,0,1-.19.1.35.35,0,0,1-.2,0,.79.79,0,0,1-.24-.15l-.27-.25a2.81,2.81,0,0,0-.36-.27,2.39,2.39,0,0,0-.53-.24,1.33,1.33,0,0,0-.83,0,.7.7,0,0,0-.44.46.48.48,0,0,0,0,.41,1.17,1.17,0,0,0,.3.39,3.85,3.85,0,0,0,.47.37l.56.38c.18.14.36.28.53.44a1.88,1.88,0,0,1,.43.51,1.72,1.72,0,0,1,.23.62,1.67,1.67,0,0,1-.08.75,2.35,2.35,0,0,1-.45.86A2.05,2.05,0,0,1,293,41a2.34,2.34,0,0,1-1,.21,3.81,3.81,0,0,1-1.23-.19,3.61,3.61,0,0,1-.67-.27,5.11,5.11,0,0,1-.6-.38,3.54,3.54,0,0,1-.49-.45,2.18,2.18,0,0,1-.36-.47l.57-.52a.57.57,0,0,1,.23-.12.51.51,0,0,1,.27,0A.59.59,0,0,1,290,39l.26.28a2.91,2.91,0,0,0,.36.32,2.1,2.1,0,0,0,.6.28,1.47,1.47,0,0,0,.52.08,1,1,0,0,0,.41-.07.74.74,0,0,0,.28-.21.75.75,0,0,0,.16-.29.6.6,0,0,0,0-.44,1.47,1.47,0,0,0-.3-.38,3.79,3.79,0,0,0-.48-.37c-.19-.12-.37-.25-.56-.39s-.37-.28-.55-.44a2.38,2.38,0,0,1-.43-.53,1.83,1.83,0,0,1-.21-.66,2,2,0,0,1,.09-.82,2.09,2.09,0,0,1,.42-.76,1.94,1.94,0,0,1,.69-.51,2.82,2.82,0,0,1,.95-.21,3.73,3.73,0,0,1,1.18.18,3.62,3.62,0,0,1,1.22.63,3,3,0,0,1,.78.92Z" transform="translate(-15.37 -14)"/><path class="cls-2" d="M185.41,51.74a5.76,5.76,0,0,1,1.76-.21,3.53,3.53,0,0,1,1.36.33,2.56,2.56,0,0,1,.95.81,3.48,3.48,0,0,1,.55,1.2,3.55,3.55,0,0,1,.11,1.36,2.78,2.78,0,0,1-.45,1.21,3.36,3.36,0,0,1-1,1,5.42,5.42,0,0,1-1.61.68l-1.36.35.9,3.45-1.82.48-2.56-9.8Zm1.29,4.92a2.69,2.69,0,0,0,.84-.35,1.76,1.76,0,0,0,.53-.52,1.66,1.66,0,0,0,.22-.67,2.41,2.41,0,0,0-.08-.78,2,2,0,0,0-.31-.67,1.35,1.35,0,0,0-.5-.45,1.59,1.59,0,0,0-.71-.18,2.78,2.78,0,0,0-.91.11l-1.36.36.92,3.51Z" transform="translate(-15.37 -14)"/><path class="cls-2" d="M193.05,54.2a3.39,3.39,0,0,1,.56-1.16,1.74,1.74,0,0,1,1-.59,1.35,1.35,0,0,1,.83,0l.17,1.29a.47.47,0,0,1-.06.2.27.27,0,0,1-.17.08,1.56,1.56,0,0,1-.31,0,1.75,1.75,0,0,0-.4,0,1.5,1.5,0,0,0-.48.19,1.33,1.33,0,0,0-.34.33,1.66,1.66,0,0,0-.23.44,5.48,5.48,0,0,0-.14.55l1,4.32-1.69.37-1.55-7,1-.22a.62.62,0,0,1,.39,0,.61.61,0,0,1,.21.3Z" transform="translate(-15.37 -14)"/><path class="cls-2" d="M199.34,51.55a3.88,3.88,0,0,1,1.48,0,3.22,3.22,0,0,1,1.23.52,3.36,3.36,0,0,1,.92,1,4.5,4.5,0,0,1,.52,1.46,4.57,4.57,0,0,1,0,1.56,3.41,3.41,0,0,1-.49,1.28,3.2,3.2,0,0,1-1,.93,4,4,0,0,1-1.38.52,4.14,4.14,0,0,1-1.49,0,3.12,3.12,0,0,1-1.24-.52,3.36,3.36,0,0,1-.92-1,4.34,4.34,0,0,1-.53-1.47,4.27,4.27,0,0,1,0-1.55A3.15,3.15,0,0,1,197,53a3,3,0,0,1,1-.92A3.79,3.79,0,0,1,199.34,51.55Zm1.1,6a1.54,1.54,0,0,0,1.19-.83,3,3,0,0,0,.11-1.82,3.09,3.09,0,0,0-.74-1.66,1.51,1.51,0,0,0-1.42-.36,1.53,1.53,0,0,0-1.21.84,3,3,0,0,0-.12,1.82,3,3,0,0,0,.75,1.65A1.55,1.55,0,0,0,200.44,57.52Z" transform="translate(-15.37 -14)"/><path class="cls-2" d="M210.11,46.75l1.41,10.3-1,.15a.42.42,0,0,1-.48-.26l-.24-.66a3.54,3.54,0,0,1-.88.93,2.62,2.62,0,0,1-1.25.48,2.37,2.37,0,0,1-1.1-.09,2.53,2.53,0,0,1-.94-.59,3.35,3.35,0,0,1-.69-1.07,5.67,5.67,0,0,1-.41-1.53,5,5,0,0,1,0-1.5,3.65,3.65,0,0,1,.46-1.26,2.88,2.88,0,0,1,.86-.91,2.8,2.8,0,0,1,1.22-.46,2.68,2.68,0,0,1,1,0,2.77,2.77,0,0,1,.83.4L208.4,47Zm-1,5.24a1.59,1.59,0,0,0-.7-.41,1.92,1.92,0,0,0-.76,0,1.83,1.83,0,0,0-.68.24,1.48,1.48,0,0,0-.47.52,2.16,2.16,0,0,0-.24.79,4.07,4.07,0,0,0,0,1.09,5.19,5.19,0,0,0,.24,1,2,2,0,0,0,.39.67,1.12,1.12,0,0,0,.51.34,1.59,1.59,0,0,0,.62,0,1.7,1.7,0,0,0,.88-.34,2.66,2.66,0,0,0,.62-.73Z" transform="translate(-15.37 -14)"/><path class="cls-2" d="M218.62,49.15l.66,7.15-1.05.1a.4.4,0,0,1-.46-.28l-.18-.56a3.68,3.68,0,0,1-.9.82,2.83,2.83,0,0,1-1.22.39,2.54,2.54,0,0,1-1.05-.11,2,2,0,0,1-.81-.49,2.41,2.41,0,0,1-.55-.82,3.56,3.56,0,0,1-.25-1.08l-.42-4.55,1.72-.15.42,4.54a1.55,1.55,0,0,0,.39,1,1.14,1.14,0,0,0,1,.27,1.94,1.94,0,0,0,.82-.27,3.27,3.27,0,0,0,.68-.62l-.47-5.17Z" transform="translate(-15.37 -14)"/><path class="cls-2" d="M225.73,50.28a.56.56,0,0,1-.14.16.4.4,0,0,1-.21.07.48.48,0,0,1-.26-.07l-.31-.17a2.61,2.61,0,0,0-.43-.16,2.13,2.13,0,0,0-.6,0,2,2,0,0,0-.79.21,1.52,1.52,0,0,0-.54.5,2.16,2.16,0,0,0-.3.76,4.49,4.49,0,0,0-.07,1,3.72,3.72,0,0,0,.18,1,2.11,2.11,0,0,0,.39.73,1.55,1.55,0,0,0,.58.44,1.85,1.85,0,0,0,.75.12,1.81,1.81,0,0,0,.66-.14,2,2,0,0,0,.42-.24l.3-.24a.42.42,0,0,1,.28-.12.33.33,0,0,1,.32.15l.53.6a3.29,3.29,0,0,1-.59.59,3,3,0,0,1-.68.4,3.1,3.1,0,0,1-.73.23,6.42,6.42,0,0,1-.75.1,3.16,3.16,0,0,1-1.27-.19,2.89,2.89,0,0,1-1.06-.67,3.4,3.4,0,0,1-.76-1.13,4.84,4.84,0,0,1-.34-1.55,4.74,4.74,0,0,1,.16-1.48,3.25,3.25,0,0,1,.61-1.2,3,3,0,0,1,1-.83,4,4,0,0,1,2.9-.17,3.41,3.41,0,0,1,1.13.69Z" transform="translate(-15.37 -14)"/><path class="cls-2" d="M230,56a1.89,1.89,0,0,1-1.45-.51A2,2,0,0,1,228,54l-.07-4-.74,0a.32.32,0,0,1-.23-.09.34.34,0,0,1-.11-.27V49l1.15-.21.33-2a.33.33,0,0,1,.13-.22.39.39,0,0,1,.25-.08l.9,0,0,2.26,1.91,0,0,1.23-1.92,0,.07,3.89a.78.78,0,0,0,.17.53.58.58,0,0,0,.45.18.68.68,0,0,0,.27,0l.19-.08.14-.08a.22.22,0,0,1,.13,0,.21.21,0,0,1,.12,0,.65.65,0,0,1,.11.12l.53.83a2.51,2.51,0,0,1-.86.49A3.4,3.4,0,0,1,230,56Z" transform="translate(-15.37 -14)"/><path class="cls-2" d="M243.27,47.54l-3.05-.11L239.9,56,238,55.93l.32-8.57-3.05-.12.06-1.54,8,.3Z" transform="translate(-15.37 -14)"/><path class="cls-2" d="M246,49.93a3.94,3.94,0,0,1,1-.56,2.72,2.72,0,0,1,1.2-.14,2.53,2.53,0,0,1,1,.28,2.24,2.24,0,0,1,.71.62,2.62,2.62,0,0,1,.39.9,3.66,3.66,0,0,1,.06,1.11L250,56.7l-1.73-.15.38-4.55a1.51,1.51,0,0,0-.22-1,1.13,1.13,0,0,0-.88-.44,1.76,1.76,0,0,0-.85.14,2.65,2.65,0,0,0-.79.49l-.43,5.17-1.72-.14.85-10.37,1.73.15Z" transform="translate(-15.37 -14)"/><path class="cls-2" d="M253.27,53.68a3.66,3.66,0,0,0,.07,1,2,2,0,0,0,.32.71,1.53,1.53,0,0,0,.55.46,2.21,2.21,0,0,0,.74.23,2.5,2.5,0,0,0,.73,0,3.47,3.47,0,0,0,.56-.15l.42-.16a.72.72,0,0,1,.34-.06.36.36,0,0,1,.3.2l.42.69A3,3,0,0,1,257,57a3.88,3.88,0,0,1-.79.27,4.37,4.37,0,0,1-.81.09,6.57,6.57,0,0,1-.78,0,4.26,4.26,0,0,1-1.35-.42,3.28,3.28,0,0,1-1-.87,3.48,3.48,0,0,1-.59-1.29,4.69,4.69,0,0,1-.06-1.69,4,4,0,0,1,.41-1.34,3.31,3.31,0,0,1,.81-1A3.25,3.25,0,0,1,254,50.1a3.72,3.72,0,0,1,1.47-.1,3.65,3.65,0,0,1,1.21.38,2.74,2.74,0,0,1,.9.75,2.81,2.81,0,0,1,.51,1.09,3.78,3.78,0,0,1,.07,1.4,1.35,1.35,0,0,1-.15.52.36.36,0,0,1-.34.09Zm3.4-.62a2.27,2.27,0,0,0,0-.64,1.53,1.53,0,0,0-.22-.56,1.41,1.41,0,0,0-.43-.41,1.61,1.61,0,0,0-.66-.21,1.64,1.64,0,0,0-1.22.27,2.09,2.09,0,0,0-.69,1.14Z" transform="translate(-15.37 -14)"/><path class="cls-2" d="M258.81,57.76l1.28-7.07,1,.19a.44.44,0,0,1,.38.39v.54a4.53,4.53,0,0,1,.46-.3,2.38,2.38,0,0,1,.49-.22,2.27,2.27,0,0,1,.53-.11,2.44,2.44,0,0,1,.59,0,1.66,1.66,0,0,1,1,.56,2.23,2.23,0,0,1,.47,1.07,2,2,0,0,1,.52-.52,2.15,2.15,0,0,1,.62-.32,2.48,2.48,0,0,1,.67-.12,3.21,3.21,0,0,1,.69,0,2.77,2.77,0,0,1,1,.37,1.93,1.93,0,0,1,.67.66,2.34,2.34,0,0,1,.32.93,3.54,3.54,0,0,1,0,1.16l-.82,4.5-1.7-.31.82-4.5a1.53,1.53,0,0,0-.12-1.07,1.33,1.33,0,0,0-1.3-.49,1.14,1.14,0,0,0-.44.18,1.28,1.28,0,0,0-.35.38,1.82,1.82,0,0,0-.2.57l-.81,4.49-1.71-.3.81-4.5a1.57,1.57,0,0,0-.09-1.09,1.07,1.07,0,0,0-.78-.47,1.39,1.39,0,0,0-.73,0,2.52,2.52,0,0,0-.68.4l-.94,5.17Z" transform="translate(-15.37 -14)"/><path class="cls-2" d="M272.28,57a3.66,3.66,0,0,0,0,1,2.08,2.08,0,0,0,.24.74,1.65,1.65,0,0,0,.5.52,2,2,0,0,0,.71.3,2.46,2.46,0,0,0,.73.08,4.27,4.27,0,0,0,.57-.09l.43-.12a.61.61,0,0,1,.35,0,.37.37,0,0,1,.28.23l.33.73a2.86,2.86,0,0,1-.75.4,3.93,3.93,0,0,1-.81.18,3.75,3.75,0,0,1-.82,0,4.76,4.76,0,0,1-.77-.12,4,4,0,0,1-1.3-.57,3.15,3.15,0,0,1-.92-1,3.6,3.6,0,0,1-.45-1.34,5,5,0,0,1,.12-1.69,4.2,4.2,0,0,1,.55-1.28,3.33,3.33,0,0,1,.93-.94,3,3,0,0,1,1.23-.49,3.69,3.69,0,0,1,1.47.06A3.63,3.63,0,0,1,276,54a2.63,2.63,0,0,1,.81.85,2.82,2.82,0,0,1,.4,1.14,3.77,3.77,0,0,1-.09,1.4,1,1,0,0,1-.21.49.32.32,0,0,1-.34.06Zm3.45-.25a2.35,2.35,0,0,0,.06-.64,1.62,1.62,0,0,0-.16-.57,1.47,1.47,0,0,0-.38-.45,1.67,1.67,0,0,0-.63-.29,1.64,1.64,0,0,0-1.25.15,2.12,2.12,0,0,0-.81,1.05Z" transform="translate(-15.37 -14)"/><path class="cls-2" d="M201,199.21A44.5,44.5,0,0,1,276.87,231h122.5a167,167,0,1,0-334,0h122.5A44.32,44.32,0,0,1,201,199.21Z" transform="translate(-15.37 -14)"/><path class="cls-2" d="M209.94,218.34a.33.33,0,0,1,.22.09l.58.64a3.26,3.26,0,0,1-1.19.92,4.16,4.16,0,0,1-1.7.31,4,4,0,0,1-1.59-.3,3.46,3.46,0,0,1-1.21-.84,3.79,3.79,0,0,1-.77-1.29,5,5,0,0,1-.26-1.63,4.52,4.52,0,0,1,.28-1.64,3.72,3.72,0,0,1,.81-1.29,3.51,3.51,0,0,1,1.24-.83,4.09,4.09,0,0,1,1.59-.3,4,4,0,0,1,1.55.28,3.53,3.53,0,0,1,1.14.75l-.49.69a.57.57,0,0,1-.11.11.29.29,0,0,1-.19.05.33.33,0,0,1-.17,0l-.2-.12-.24-.15a1.35,1.35,0,0,0-.32-.15,2.1,2.1,0,0,0-.42-.12,3,3,0,0,0-.55,0,2.59,2.59,0,0,0-1,.19,2.18,2.18,0,0,0-.76.55,2.51,2.51,0,0,0-.49.88,3.67,3.67,0,0,0-.18,1.19,3.38,3.38,0,0,0,.19,1.19,2.68,2.68,0,0,0,.51.88,2.32,2.32,0,0,0,.77.55,2.29,2.29,0,0,0,.94.19,4.44,4.44,0,0,0,.55,0,2,2,0,0,0,.45-.11,1.73,1.73,0,0,0,.39-.18,2.4,2.4,0,0,0,.37-.28l.11-.08A.31.31,0,0,1,209.94,218.34Z" transform="translate(-15.37 -14)"/><path class="cls-2" d="M213.92,214.49a3,3,0,0,1,1.14.2,2.33,2.33,0,0,1,.88.58,2.43,2.43,0,0,1,.57.91,3.73,3.73,0,0,1,0,2.41,2.47,2.47,0,0,1-.57.92,2.35,2.35,0,0,1-.88.59,3.17,3.17,0,0,1-1.14.2,3.27,3.27,0,0,1-1.15-.2,2.44,2.44,0,0,1-.88-.59,2.76,2.76,0,0,1-.57-.92,3.73,3.73,0,0,1,0-2.41,2.71,2.71,0,0,1,.57-.91,2.41,2.41,0,0,1,.88-.58A3.05,3.05,0,0,1,213.92,214.49Zm0,4.76a1.2,1.2,0,0,0,1.05-.47,2.4,2.4,0,0,0,.33-1.38A2.48,2.48,0,0,0,215,216a1.21,1.21,0,0,0-1.05-.48,1.23,1.23,0,0,0-1.06.49,3,3,0,0,0,0,2.77A1.22,1.22,0,0,0,213.92,219.25Z" transform="translate(-15.37 -14)"/><path class="cls-2" d="M217.75,220.22v-5.65h.83a.33.33,0,0,1,.34.25l.09.42a2.91,2.91,0,0,1,.31-.3,2,2,0,0,1,.74-.4,1.74,1.74,0,0,1,.47,0,1.35,1.35,0,0,1,.88.28,1.83,1.83,0,0,1,.51.77,1.7,1.7,0,0,1,.33-.48,2.24,2.24,0,0,1,.43-.33,2.21,2.21,0,0,1,.51-.18,2.39,2.39,0,0,1,.53-.06,2.12,2.12,0,0,1,.83.14,1.4,1.4,0,0,1,.61.42,1.63,1.63,0,0,1,.38.67,2.75,2.75,0,0,1,.13.9v3.6h-1.36v-3.6a1.28,1.28,0,0,0-.23-.81.88.88,0,0,0-.7-.27,1.12,1.12,0,0,0-.38.07,1,1,0,0,0-.32.21.89.89,0,0,0-.21.34,1.3,1.3,0,0,0-.08.46v3.6H221v-3.6a1.24,1.24,0,0,0-.23-.82.84.84,0,0,0-.67-.26,1.06,1.06,0,0,0-.55.15,1.76,1.76,0,0,0-.48.4v4.13Z" transform="translate(-15.37 -14)"/><path class="cls-2" d="M228.24,215.34a3.13,3.13,0,0,1,.79-.63,2.12,2.12,0,0,1,1-.24,1.86,1.86,0,0,1,.85.19,2.06,2.06,0,0,1,.66.56,2.69,2.69,0,0,1,.43.9,4.6,4.6,0,0,1,.15,1.23,4,4,0,0,1-.17,1.17,3.11,3.11,0,0,1-.49.94,2.28,2.28,0,0,1-.76.62,2.37,2.37,0,0,1-1,.22,2,2,0,0,1-.81-.15,1.81,1.81,0,0,1-.59-.4v2.31H227v-7.49h.83a.33.33,0,0,1,.34.25Zm.08,3.41a1.32,1.32,0,0,0,.5.4,1.44,1.44,0,0,0,.59.11,1.27,1.27,0,0,0,.56-.11,1.16,1.16,0,0,0,.42-.35,1.84,1.84,0,0,0,.26-.6,3.05,3.05,0,0,0,.1-.85,4,4,0,0,0-.08-.84,1.82,1.82,0,0,0-.23-.56,1,1,0,0,0-.36-.31,1.06,1.06,0,0,0-.48-.1,1.33,1.33,0,0,0-.72.18,2.17,2.17,0,0,0-.56.5Z" transform="translate(-15.37 -14)"/><path class="cls-2" d="M235.7,214.49a3,3,0,0,1,1.14.2,2.33,2.33,0,0,1,.88.58,2.43,2.43,0,0,1,.57.91,3.73,3.73,0,0,1,0,2.41,2.47,2.47,0,0,1-.57.92,2.35,2.35,0,0,1-.88.59,3.17,3.17,0,0,1-1.14.2,3.27,3.27,0,0,1-1.15-.2,2.44,2.44,0,0,1-.88-.59,2.76,2.76,0,0,1-.57-.92,3.73,3.73,0,0,1,0-2.41,2.71,2.71,0,0,1,.57-.91,2.41,2.41,0,0,1,.88-.58A3.05,3.05,0,0,1,235.7,214.49Zm0,4.76a1.17,1.17,0,0,0,1-.47,2.32,2.32,0,0,0,.34-1.38,2.39,2.39,0,0,0-.34-1.4,1.18,1.18,0,0,0-1-.48,1.23,1.23,0,0,0-1.06.49,3,3,0,0,0,0,2.77A1.22,1.22,0,0,0,235.7,219.25Z" transform="translate(-15.37 -14)"/><path class="cls-2" d="M240.79,215.27a3.68,3.68,0,0,1,.37-.32,2.06,2.06,0,0,1,.4-.25,2.18,2.18,0,0,1,.45-.16,2.22,2.22,0,0,1,.53,0,2.1,2.1,0,0,1,.82.15,1.55,1.55,0,0,1,.59.44,1.94,1.94,0,0,1,.37.68,2.93,2.93,0,0,1,.12.86v3.6h-1.36v-3.6a1.27,1.27,0,0,0-.23-.8.92.92,0,0,0-.72-.28,1.34,1.34,0,0,0-.66.16,2.38,2.38,0,0,0-.59.44v4.08h-1.36v-5.65h.83a.34.34,0,0,1,.35.25Z" transform="translate(-15.37 -14)"/><path class="cls-2" d="M246.77,217.57a3.09,3.09,0,0,0,.16.75,1.43,1.43,0,0,0,.32.52,1.17,1.17,0,0,0,.47.31,1.89,1.89,0,0,0,.6.1,1.91,1.91,0,0,0,.57-.08,2.81,2.81,0,0,0,.42-.17l.31-.17a.56.56,0,0,1,.26-.08.29.29,0,0,1,.25.13l.39.5a2.32,2.32,0,0,1-.5.44,2.66,2.66,0,0,1-.59.28,2.25,2.25,0,0,1-.62.15,4.3,4.3,0,0,1-.61.05,3.07,3.07,0,0,1-1.1-.2,2.57,2.57,0,0,1-.88-.57,2.67,2.67,0,0,1-.58-.95,3.53,3.53,0,0,1-.22-1.31,3,3,0,0,1,.19-1.08,2.57,2.57,0,0,1,.53-.89,2.49,2.49,0,0,1,.86-.59,2.71,2.71,0,0,1,1.13-.22,2.64,2.64,0,0,1,1,.17,2.12,2.12,0,0,1,.77.49,2.24,2.24,0,0,1,.51.81,3,3,0,0,1,.19,1.08.93.93,0,0,1-.07.42.27.27,0,0,1-.25.11Zm2.59-.82a1.59,1.59,0,0,0-.07-.5,1.16,1.16,0,0,0-.22-.41,1.08,1.08,0,0,0-.38-.28,1.25,1.25,0,0,0-.53-.1,1.29,1.29,0,0,0-.93.33,1.68,1.68,0,0,0-.43,1Z" transform="translate(-15.37 -14)"/><path class="cls-2" d="M252.87,215.27c.12-.12.24-.22.36-.32a2.42,2.42,0,0,1,.4-.25,2.51,2.51,0,0,1,.46-.16,2.22,2.22,0,0,1,.53,0,2.1,2.1,0,0,1,.82.15,1.72,1.72,0,0,1,.59.44,2.12,2.12,0,0,1,.37.68,2.93,2.93,0,0,1,.12.86v3.6h-1.36v-3.6a1.27,1.27,0,0,0-.23-.8.93.93,0,0,0-.73-.28,1.4,1.4,0,0,0-.66.16,2.34,2.34,0,0,0-.58.44v4.08H251.6v-5.65h.83a.35.35,0,0,1,.35.25Z" transform="translate(-15.37 -14)"/><path class="cls-2" d="M259.61,220.3a1.47,1.47,0,0,1-1.13-.41,1.62,1.62,0,0,1-.39-1.15v-3.15h-.58a.26.26,0,0,1-.19-.07.29.29,0,0,1-.07-.22v-.53l.9-.15.29-1.54a.29.29,0,0,1,.1-.17.34.34,0,0,1,.2-.06h.71v1.77H261v1h-1.5v3.06a.59.59,0,0,0,.13.41.43.43,0,0,0,.35.15.66.66,0,0,0,.21,0l.15-.06.11-.07.1,0a.15.15,0,0,1,.1,0,.36.36,0,0,1,.08.09l.41.66a2.06,2.06,0,0,1-.68.38A2.67,2.67,0,0,1,259.61,220.3Z" transform="translate(-15.37 -14)"/><path class="cls-3" d="M190,134.06a2.52,2.52,0,0,0,1-.18,1.89,1.89,0,0,0,.72-.51,2.33,2.33,0,0,0,.46-.8,3.41,3.41,0,0,0,.15-1v-6.06h1.89v6.06a4.76,4.76,0,0,1-.29,1.67,3.92,3.92,0,0,1-.84,1.32,3.66,3.66,0,0,1-1.32.87,5.09,5.09,0,0,1-3.5,0,3.66,3.66,0,0,1-1.32-.87,3.77,3.77,0,0,1-.84-1.32,4.76,4.76,0,0,1-.29-1.67v-6.06h1.89v6.06a3.39,3.39,0,0,0,.15,1,2.29,2.29,0,0,0,.46.81,2,2,0,0,0,.73.51A2.47,2.47,0,0,0,190,134.06Z" transform="translate(-15.37 -14)"/><path class="cls-3" d="M198.16,135.58h-1.89V125.46h1.89Z" transform="translate(-15.37 -14)"/><path class="cls-3" d="M200.1,130.63h3.62v1.45H200.1Z" transform="translate(-15.37 -14)"/><path class="cls-3" d="M212.6,133.19a.37.37,0,0,1,.27.12l.74.81a4,4,0,0,1-1.51,1.17,5.24,5.24,0,0,1-2.16.4,5.07,5.07,0,0,1-2-.38,4.54,4.54,0,0,1-1.54-1.07,4.73,4.73,0,0,1-1-1.64,6.05,6.05,0,0,1-.34-2.08,5.84,5.84,0,0,1,.36-2.09,4.72,4.72,0,0,1,1-1.63,4.47,4.47,0,0,1,1.58-1.07,5.28,5.28,0,0,1,2-.38,5,5,0,0,1,2,.36,4.67,4.67,0,0,1,1.46,1l-.63.88a1,1,0,0,1-.14.15.44.44,0,0,1-.25.06.42.42,0,0,1-.21-.06l-.25-.15-.31-.19a2.49,2.49,0,0,0-.4-.19,3.2,3.2,0,0,0-.54-.15,3.58,3.58,0,0,0-.7-.06,3.12,3.12,0,0,0-1.24.24,2.71,2.71,0,0,0-1,.7,3.3,3.3,0,0,0-.63,1.12,4.7,4.7,0,0,0-.23,1.51,4.21,4.21,0,0,0,.25,1.52,3.24,3.24,0,0,0,.65,1.12,2.8,2.8,0,0,0,1,.7,3.07,3.07,0,0,0,1.21.24c.25,0,.49,0,.69,0a3.28,3.28,0,0,0,.58-.14,2.75,2.75,0,0,0,.49-.23,2.56,2.56,0,0,0,.47-.36l.15-.1A.42.42,0,0,1,212.6,133.19Z" transform="translate(-15.37 -14)"/><path class="cls-3" d="M217.67,128.29a3.78,3.78,0,0,1,1.45.26,3.15,3.15,0,0,1,1.12.73,3.35,3.35,0,0,1,.72,1.16,4.87,4.87,0,0,1,0,3.08,3.49,3.49,0,0,1-.72,1.17,3.18,3.18,0,0,1-1.12.74,4,4,0,0,1-1.45.26,4,4,0,0,1-1.47-.26,3.09,3.09,0,0,1-1.12-.74,3.49,3.49,0,0,1-.72-1.17,4.69,4.69,0,0,1,0-3.08,3.35,3.35,0,0,1,.72-1.16,3.07,3.07,0,0,1,1.12-.73A3.85,3.85,0,0,1,217.67,128.29Zm0,6.07a1.51,1.51,0,0,0,1.32-.61,3,3,0,0,0,.43-1.76,3,3,0,0,0-.43-1.77,1.51,1.51,0,0,0-1.32-.61,1.56,1.56,0,0,0-1.35.61,3,3,0,0,0-.44,1.77,3,3,0,0,0,.44,1.76A1.54,1.54,0,0,0,217.67,134.36Z" transform="translate(-15.37 -14)"/><path class="cls-3" d="M224.16,129.65a3.24,3.24,0,0,1,.8-1,1.72,1.72,0,0,1,1.09-.36,1.38,1.38,0,0,1,.8.21l-.11,1.3a.5.5,0,0,1-.1.18.35.35,0,0,1-.18,0l-.31,0a2,2,0,0,0-.41,0,1.6,1.6,0,0,0-.51.08,1.28,1.28,0,0,0-.4.25,1.74,1.74,0,0,0-.32.38,4,4,0,0,0-.25.51v4.42h-1.73V128.4h1a.59.59,0,0,1,.37.09.63.63,0,0,1,.14.34Z" transform="translate(-15.37 -14)"/><path class="cls-3" d="M228.88,132.21a3.47,3.47,0,0,0,.19.95,2.11,2.11,0,0,0,.41.67,1.73,1.73,0,0,0,.6.39,2.11,2.11,0,0,0,.77.13,2.2,2.2,0,0,0,.72-.1,3.9,3.9,0,0,0,.53-.21l.4-.22a.65.65,0,0,1,.33-.1.36.36,0,0,1,.33.16l.49.63a2.83,2.83,0,0,1-.64.56,3.27,3.27,0,0,1-.75.37,4.33,4.33,0,0,1-.79.19,5.32,5.32,0,0,1-.78.06,3.94,3.94,0,0,1-1.39-.25,3.13,3.13,0,0,1-1.12-.74,3.31,3.31,0,0,1-.75-1.2,4.7,4.7,0,0,1-.27-1.66,4.27,4.27,0,0,1,.23-1.39,3.29,3.29,0,0,1,.69-1.12,3.11,3.11,0,0,1,1.08-.76,3.54,3.54,0,0,1,1.45-.28,3.6,3.6,0,0,1,1.25.21,2.86,2.86,0,0,1,1,.64,3.13,3.13,0,0,1,.65,1,3.91,3.91,0,0,1,.23,1.38,1.23,1.23,0,0,1-.08.53.37.37,0,0,1-.33.14Zm3.3-1a2.2,2.2,0,0,0-.1-.64,1.53,1.53,0,0,0-.28-.52,1.3,1.3,0,0,0-.48-.35,1.86,1.86,0,0,0-1.86.29,2.17,2.17,0,0,0-.55,1.22Z" transform="translate(-15.37 -14)"/><path class="cls-3" d="M245.34,127h-3.05v8.57h-1.88V127h-3v-1.55h8Z" transform="translate(-15.37 -14)"/><path class="cls-3" d="M248,129.17a4,4,0,0,1,.93-.64,2.7,2.7,0,0,1,1.18-.24,2.44,2.44,0,0,1,1,.2,2,2,0,0,1,.76.56,2.22,2.22,0,0,1,.46.86,3.48,3.48,0,0,1,.16,1.1v4.57H250.8V131a1.55,1.55,0,0,0-.3-1,1.11,1.11,0,0,0-.91-.36,1.86,1.86,0,0,0-.84.2,3,3,0,0,0-.75.56v5.19h-1.73v-10.4H248Z" transform="translate(-15.37 -14)"/><path class="cls-3" d="M255.5,132.21a3.12,3.12,0,0,0,.2.95,2.09,2.09,0,0,0,.4.67,1.73,1.73,0,0,0,.6.39,2.11,2.11,0,0,0,.77.13,2.2,2.2,0,0,0,.72-.1,3.9,3.9,0,0,0,.53-.21l.4-.22a.66.66,0,0,1,.34-.1.35.35,0,0,1,.32.16l.49.63a2.83,2.83,0,0,1-.64.56,3.27,3.27,0,0,1-.75.37,4.14,4.14,0,0,1-.79.19,5.12,5.12,0,0,1-.78.06,3.94,3.94,0,0,1-1.39-.25,3.13,3.13,0,0,1-1.12-.74,3.31,3.31,0,0,1-.75-1.2,4.7,4.7,0,0,1-.27-1.66,4,4,0,0,1,.24-1.39,3.27,3.27,0,0,1,.68-1.12,3.2,3.2,0,0,1,1.08-.76,3.54,3.54,0,0,1,1.45-.28,3.6,3.6,0,0,1,1.25.21,2.86,2.86,0,0,1,1,.64,3.13,3.13,0,0,1,.65,1,3.91,3.91,0,0,1,.23,1.38,1.23,1.23,0,0,1-.08.53.37.37,0,0,1-.33.14Zm3.3-1a1.91,1.91,0,0,0-.1-.64,1.38,1.38,0,0,0-.28-.52,1.3,1.3,0,0,0-.48-.35,1.57,1.57,0,0,0-.67-.13,1.61,1.61,0,0,0-1.18.42,2,2,0,0,0-.55,1.22Z" transform="translate(-15.37 -14)"/><path class="cls-3" d="M261.65,135.58V128.4h1.05a.42.42,0,0,1,.44.31l.12.54a3.59,3.59,0,0,1,.39-.39,4.27,4.27,0,0,1,.44-.3,2.85,2.85,0,0,1,.51-.2,2.17,2.17,0,0,1,.59-.07,1.64,1.64,0,0,1,1.11.37,2.18,2.18,0,0,1,.66,1,2.07,2.07,0,0,1,.42-.61,2.43,2.43,0,0,1,.55-.42,2.87,2.87,0,0,1,.64-.23,2.71,2.71,0,0,1,.69-.08,2.89,2.89,0,0,1,1.05.18,2,2,0,0,1,.78.53,2.4,2.4,0,0,1,.48.86,3.67,3.67,0,0,1,.16,1.15v4.57H270V131a1.53,1.53,0,0,0-.3-1,1.1,1.1,0,0,0-.88-.35,1.3,1.3,0,0,0-.49.09,1.09,1.09,0,0,0-.4.27,1,1,0,0,0-.27.43,1.55,1.55,0,0,0-.1.59v4.57h-1.73V131a1.53,1.53,0,0,0-.3-1,1.06,1.06,0,0,0-.85-.33,1.34,1.34,0,0,0-.7.19,2.21,2.21,0,0,0-.61.51v5.25Z" transform="translate(-15.37 -14)"/><path class="cls-3" d="M274.7,132.21a3.12,3.12,0,0,0,.2.95,1.93,1.93,0,0,0,.4.67,1.73,1.73,0,0,0,.6.39,2.11,2.11,0,0,0,.77.13,2.2,2.2,0,0,0,.72-.1,3.44,3.44,0,0,0,.53-.21l.4-.22a.66.66,0,0,1,.34-.1.35.35,0,0,1,.32.16l.49.63a2.83,2.83,0,0,1-.64.56,3.41,3.41,0,0,1-.74.37,4.43,4.43,0,0,1-.8.19,5.22,5.22,0,0,1-.78.06,4,4,0,0,1-1.39-.25,3.13,3.13,0,0,1-1.12-.74,3.31,3.31,0,0,1-.75-1.2,4.7,4.7,0,0,1-.27-1.66,4,4,0,0,1,.24-1.39,3.22,3.22,0,0,1,1.76-1.88,3.54,3.54,0,0,1,1.45-.28,3.6,3.6,0,0,1,1.25.21,2.77,2.77,0,0,1,1,.64,3.13,3.13,0,0,1,.65,1,3.91,3.91,0,0,1,.23,1.38,1.23,1.23,0,0,1-.08.53.36.36,0,0,1-.32.14Zm3.3-1a1.91,1.91,0,0,0-.1-.64,1.38,1.38,0,0,0-.28-.52,1.3,1.3,0,0,0-.48-.35,1.59,1.59,0,0,0-.68-.13,1.62,1.62,0,0,0-1.18.42,2.09,2.09,0,0,0-.54,1.22Z" transform="translate(-15.37 -14)"/></svg>